<svg width="900" height="600" viewBox="0 0 900 600" fill="none" xmlns="http://www.w3.org/2000/svg"><path fill="transparent" d="M0 0h900v600H0z"/><path d="M263.047 418.918c0-2.105-1.706-3.798-3.825-3.815-13.312-.016-57.503-.049-70.815-.065a3.826 3.826 0 0 0-3.841 3.797c0 5.804-.017 16.82-.017 22.623 0 2.105 1.705 3.798 3.825 3.815 13.312.016 57.503.049 70.815.065 2.119 0 3.841-1.693 3.841-3.798 0-5.803 0-16.819.017-22.622zm-1.092 60.803c0-2.104-1.705-3.798-3.825-3.814-13.312-.016-57.503-.049-70.815-.066-2.119 0-3.825 1.694-3.825 3.798 0 5.804-.016 16.819-.016 22.623 0 2.104 1.705 3.798 3.824 3.814 13.312.017 57.504.05 70.816.066a3.827 3.827 0 0 0 3.841-3.798c-.017-5.804 0-16.819 0-22.623z" stroke="#E1E4E5" stroke-width="4" stroke-miterlimit="10" stroke-linecap="round" stroke-linejoin="round"/><path d="M299.324 449.532c0-2.105-1.706-3.798-3.825-3.815-13.312-.016-57.503-.049-70.815-.066-2.12 0-3.842 1.694-3.842 3.798 0 5.804-.016 16.82-.016 22.623 0 2.105 1.705 3.798 3.825 3.814 13.312.017 57.503.05 70.815.066 2.119 0 3.841-1.693 3.841-3.798 0-5.82.017-16.819.017-22.622zm-.513 60.866c0-2.105-1.705-3.798-3.825-3.815-13.312-.016-57.503-.049-70.815-.066a3.827 3.827 0 0 0-3.841 3.798c0 5.804-.017 16.82-.017 22.623 0 2.105 1.706 3.798 3.825 3.815 13.312.016 57.503.049 70.815.065a3.802 3.802 0 0 0 3.825-3.798c.033-5.82.033-16.819.033-22.622zm121.529-91.335c0-2.104-1.705-3.797-3.825-3.814-13.312-.016-57.503-.049-70.815-.066a3.827 3.827 0 0 0-3.841 3.798c0 5.804-.017 16.819-.017 22.623 0 2.104 1.706 3.798 3.825 3.814 13.312.017 57.503.05 70.815.066 2.119 0 3.825-1.693 3.825-3.798.033-5.82.033-16.819.033-22.623zm-1.075 60.807c0-2.105-1.705-3.798-3.824-3.815-13.329-.016-57.504-.049-70.816-.066-2.119 0-3.841 1.694-3.841 3.798 0 5.804-.017 16.819-.017 22.623 0 2.105 1.706 3.798 3.825 3.814 13.312.017 57.487.05 70.815.066a3.802 3.802 0 0 0 3.825-3.798c.017-5.82.033-16.819.033-22.622z" stroke="#E1E4E5" stroke-width="4" stroke-miterlimit="10" stroke-linecap="round" stroke-linejoin="round"/><path d="M456.633 449.253c0-2.104-1.705-3.798-3.825-3.814-13.312-.017-57.503-.05-70.815-.066a3.827 3.827 0 0 0-3.841 3.798c0 5.804-.017 16.819-.017 22.623 0 2.104 1.706 3.798 3.825 3.814 13.312.017 57.503.049 70.815.066a3.803 3.803 0 0 0 3.825-3.798c.033-5.82.033-16.819.033-22.623zm-.513 60.864c0-2.105-1.706-3.798-3.825-3.815-13.312-.016-57.487-.049-70.815-.066a3.803 3.803 0 0 0-3.825 3.798c0 5.804-.017 16.82-.017 22.623 0 2.105 1.706 3.798 3.825 3.814 13.312.017 57.503.05 70.815.066a3.802 3.802 0 0 0 3.825-3.798c.017-5.82.017-16.819.017-22.622zm-114.427-91.133a3.802 3.802 0 0 0-3.824-3.797c-13.312-.017-57.504-.05-70.816-.066a3.802 3.802 0 0 0-3.824 3.798c0 5.803-.017 16.819-.017 22.623 0 2.104 1.706 3.797 3.825 3.814 13.312.016 57.503.049 70.815.066 2.119 0 3.825-1.694 3.825-3.798 0-5.82 0-16.819.016-22.64zm-1.076 60.8c0-2.105-1.705-3.798-3.824-3.815-13.312-.016-57.504-.049-70.816-.065a3.802 3.802 0 0 0-3.824 3.797c0 5.804-.017 16.82-.017 22.623 0 2.105 1.706 3.798 3.825 3.815 13.312.016 57.503.049 70.815.065 2.119 0 3.825-1.693 3.825-3.797 0-5.804 0-16.803.016-22.623z" stroke="#E1E4E5" stroke-width="4" stroke-miterlimit="10" stroke-linecap="round" stroke-linejoin="round"/><path d="M377.971 449.123c0-2.105-1.705-3.798-3.824-3.814-13.312-.017-57.504-.05-70.816-.066a3.827 3.827 0 0 0-3.841 3.798c0 5.803-.017 16.819-.017 22.623 0 2.104 1.706 3.797 3.825 3.814 13.312.016 57.503.049 70.815.066a3.803 3.803 0 0 0 3.825-3.798c.033-5.82.033-16.819.033-22.623zm-.496 60.861c0-2.105-1.705-3.798-3.825-3.814-13.312-.017-57.503-.05-70.815-.066a3.827 3.827 0 0 0-3.841 3.798c0 5.803-.017 16.819-.017 22.622 0 2.105 1.706 3.798 3.825 3.815 13.312.016 57.503.049 70.815.066 2.119 0 3.825-1.694 3.825-3.798.016-5.82.016-16.819.033-22.623zm121.512-90.849a3.802 3.802 0 0 0-3.824-3.797c-13.312-.017-57.503-.05-70.815-.066a3.802 3.802 0 0 0-3.825 3.798c0 5.803-.033 16.819-.033 22.622 0 2.105 1.705 3.798 3.824 3.815 13.312.016 57.504.049 70.816.066a3.802 3.802 0 0 0 3.824-3.798c.034-5.82.033-16.836.033-22.64zm-1.074 60.797c0-2.104-1.706-3.798-3.825-3.814-13.312-.017-57.503-.05-70.815-.066-2.119 0-3.825 1.693-3.825 3.798-.033 5.804-.033 16.819-.033 22.623 0 2.104 1.705 3.798 3.825 3.814 13.312.016 57.486.049 70.815.066 2.119 0 3.825-1.694 3.825-3.798.016-5.804.033-16.819.033-22.623zm-234.27-182.364c0-2.104-1.706-3.798-3.825-3.814-13.312-.017-57.503-.05-70.815-.066a3.827 3.827 0 0 0-3.842 3.798c0 5.804-.016 16.819-.016 22.623a3.803 3.803 0 0 0 3.825 3.798c13.312.016 57.503.049 70.815.065 2.119 0 3.825-1.693 3.825-3.798.016-5.803.033-16.802.033-22.606zm-1.077 60.798a3.802 3.802 0 0 0-3.825-3.798c-13.312-.017-57.503-.05-70.815-.066-2.119 0-3.841 1.693-3.841 3.798 0 5.804-.017 16.819-.017 22.623 0 2.104 1.706 3.798 3.825 3.814 13.312.016 57.503.049 70.815.066a3.828 3.828 0 0 0 3.842-3.798c0-5.837.016-16.836.016-22.639zm37.371-30.202c0-2.105-1.706-3.798-3.825-3.815-13.312-.016-57.503-.049-70.815-.065a3.827 3.827 0 0 0-3.842 3.798c0 5.803-.016 16.819-.016 22.622a3.802 3.802 0 0 0 3.824 3.798c13.312.017 57.504.05 70.816.066a3.802 3.802 0 0 0 3.824-3.798c.017-5.787.034-16.803.034-22.606zm-.513 60.862c0-2.104-1.706-3.798-3.825-3.798-13.312-.016-57.503-.049-70.815-.065a3.802 3.802 0 0 0-3.825 3.798c0 5.803-.017 16.819-.017 22.622 0 2.105 1.706 3.798 3.825 3.798 13.312.017 57.503.05 70.815.066a3.827 3.827 0 0 0 3.842-3.798c-.017-5.803 0-16.819 0-22.623zm120.453-30.527c0-2.104-1.705-3.798-3.825-3.814-13.328-.017-57.519-.049-70.831-.066a3.828 3.828 0 0 0-3.842 3.798c0 5.804-.016 16.819-.016 22.623a3.803 3.803 0 0 0 3.825 3.798c13.312.016 57.503.049 70.831.065 2.087 0 3.825-1.693 3.825-3.797.017-5.788.017-16.803.033-22.607zm37.369-30.612c0-2.104-1.706-3.798-3.825-3.798-13.312-.016-57.503-.049-70.815-.066-2.119 0-3.825 1.694-3.825 3.798 0 5.804-.016 16.819-.016 22.623a3.802 3.802 0 0 0 3.824 3.798c13.312.016 57.52.049 70.815.066a3.803 3.803 0 0 0 3.825-3.798c-.016-5.804.017-16.819.017-22.623z" stroke="#E1E4E5" stroke-width="4" stroke-miterlimit="10" stroke-linecap="round" stroke-linejoin="round"/><path d="M456.734 388.751c0-2.104-1.705-3.798-3.825-3.814-13.312-.016-57.503-.049-70.815-.066-2.119 0-3.841 1.694-3.841 3.798 0 5.804-.017 16.819-.017 22.623 0 2.104 1.706 3.798 3.825 3.814 13.312.017 57.52.05 70.815.066a3.802 3.802 0 0 0 3.825-3.798c0-5.804.033-16.819.033-22.623zm-114.445-91.119a3.803 3.803 0 0 0-3.825-3.798c-13.312-.016-57.503-.049-70.815-.065-2.119 0-3.841 1.693-3.841 3.798 0 5.803-.017 16.819-.017 22.622 0 2.105 1.706 3.798 3.825 3.815 13.312.016 57.503.049 70.815.065a3.826 3.826 0 0 0 3.841-3.797c.017-5.837.017-16.836.017-22.64zm-1.075 60.799c0-2.105-1.706-3.798-3.825-3.798-13.312-.017-57.503-.05-70.815-.066a3.827 3.827 0 0 0-3.842 3.798c0 5.804-.016 16.819-.016 22.623a3.803 3.803 0 0 0 3.825 3.798c13.312.016 57.503.049 70.815.065 2.119 0 3.825-1.693 3.825-3.798.016-5.803.033-16.819.033-22.622z" stroke="#E1E4E5" stroke-width="4" stroke-miterlimit="10" stroke-linecap="round" stroke-linejoin="round"/><path d="M378.584 327.752c0-2.105-1.706-3.798-3.825-3.798-13.312-.017-57.503-.049-70.815-.066-2.119 0-3.825 1.694-3.825 3.798 0 5.804-.016 16.819-.016 22.623a3.802 3.802 0 0 0 3.824 3.798c13.312.016 57.504.049 70.816.065a3.827 3.827 0 0 0 3.841-3.797c-.017-5.804 0-16.82 0-22.623zm-.513 60.861c0-2.105-1.706-3.798-3.825-3.798-13.312-.017-57.503-.05-70.815-.066a3.802 3.802 0 0 0-3.825 3.798c0 5.804-.017 16.819-.017 22.623 0 2.104 1.706 3.798 3.825 3.814 13.312.016 57.503.049 70.815.066a3.828 3.828 0 0 0 3.842-3.798v-22.639zM499.6 297.768c0-2.105-1.706-3.798-3.825-3.798-13.312-.017-57.503-.05-70.815-.066a3.802 3.802 0 0 0-3.825 3.798c-.033 5.804-.033 16.819-.033 22.623 0 2.104 1.705 3.798 3.825 3.814 13.312.016 57.503.049 70.815.066 2.119 0 3.825-1.694 3.825-3.798.016-5.82.033-16.836.033-22.639zm-1.076 60.798a3.803 3.803 0 0 0-3.825-3.798c-13.328-.016-57.503-.049-70.831-.066-2.087 0-3.825 1.694-3.825 3.798 0 5.804 0 16.819-.033 22.623 0 2.105 1.738 3.798 3.824 3.798 13.329.016 57.504.049 70.832.066a3.803 3.803 0 0 0 3.825-3.798c.016-5.804.016-16.803.033-22.623zM264.439 175.757a3.803 3.803 0 0 0-3.825-3.798c-13.312-.016-57.503-.049-70.815-.066-2.119 0-3.825 1.694-3.825 3.798 0 5.804-.016 16.819-.016 22.623a3.802 3.802 0 0 0 3.824 3.798c13.312.016 57.504.049 70.816.066a3.828 3.828 0 0 0 3.841-3.798c-.017-5.804 0-16.803 0-22.623zm-1.077 60.797c0-2.105-1.705-3.798-3.825-3.815-13.312-.016-57.503-.049-70.815-.065a3.826 3.826 0 0 0-3.841 3.797c0 5.804-.017 16.82-.017 22.623 0 2.105 1.706 3.798 3.825 3.798 13.312.017 57.503.05 70.815.066 2.119 0 3.841-1.693 3.841-3.798 0-5.787.017-16.803.017-22.606z" stroke="#E1E4E5" stroke-width="4" stroke-miterlimit="10" stroke-linecap="round" stroke-linejoin="round"/><path d="M300.732 206.368c0-2.104-1.706-3.798-3.825-3.798-13.312-.016-57.503-.049-70.815-.065a3.802 3.802 0 0 0-3.825 3.798c0 5.803-.017 16.819-.017 22.622 0 2.105 1.706 3.798 3.825 3.798 13.312.017 57.503.05 70.815.066a3.802 3.802 0 0 0 3.825-3.798c0-5.82.017-16.819.017-22.623zm-.515 60.864a3.802 3.802 0 0 0-3.824-3.798c-13.312-.017-57.504-.049-70.816-.066-2.119 0-3.841 1.694-3.841 3.798 0 5.804-.017 16.819-.017 22.623 0 2.104 1.706 3.798 3.825 3.814 13.312.017 57.503.049 70.815.066 2.12 0 3.842-1.693 3.842-3.798 0-5.837.016-16.836.016-22.639zm121.532-91.327a3.803 3.803 0 0 0-3.825-3.798c-13.312-.016-57.503-.049-70.815-.065-2.119 0-3.825 1.693-3.825 3.798 0 5.803-.016 16.819-.016 22.622a3.802 3.802 0 0 0 3.825 3.798c13.312.017 57.503.05 70.815.066 2.119 0 3.825-1.693 3.825-3.798.016-5.803.016-16.819.016-22.623zm-1.077 60.796a3.803 3.803 0 0 0-3.825-3.798c-13.312-.016-57.503-.049-70.815-.065-2.119 0-3.841 1.693-3.841 3.797 0 5.804-.017 16.82-.017 22.623 0 2.105 1.706 3.798 3.825 3.798 13.312.017 57.487.049 70.815.066a3.802 3.802 0 0 0 3.825-3.798c0-5.804.033-16.819.033-22.623z" stroke="#E1E4E5" stroke-width="4" stroke-miterlimit="10" stroke-linecap="round" stroke-linejoin="round"/><path d="M458.025 206.09a3.802 3.802 0 0 0-3.825-3.798c-13.312-.016-57.503-.049-70.815-.066a3.827 3.827 0 0 0-3.841 3.798c0 5.804-.017 16.819-.017 22.623 0 2.104 1.706 3.798 3.825 3.814 13.312.017 57.503.05 70.815.066 2.119 0 3.825-1.693 3.825-3.798.033-5.836.033-16.835.033-22.639zm-.497 60.864c0-2.104-1.705-3.798-3.825-3.814-13.312-.017-57.486-.049-70.815-.066-2.119 0-3.841 1.694-3.841 3.798 0 5.804-.017 16.819-.017 22.623 0 2.104 1.706 3.798 3.825 3.798 13.312.016 57.503.049 70.815.065 2.12 0 3.825-1.693 3.825-3.797.033-5.804.033-16.803.033-22.607zm-114.426-91.115c0-2.105-1.706-3.798-3.825-3.815-13.312-.016-57.503-.049-70.815-.066-2.119 0-3.841 1.694-3.841 3.798 0 5.804-.017 16.82-.017 22.623a3.802 3.802 0 0 0 3.825 3.798c13.312.017 57.503.049 70.815.066 2.119 0 3.841-1.694 3.841-3.798 0-5.804 0-16.803.017-22.606zm-1.076 60.802c0-2.104-1.706-3.798-3.825-3.798-13.312-.016-57.503-.049-70.815-.065a3.802 3.802 0 0 0-3.825 3.798c0 5.803-.017 16.819-.017 22.622 0 2.105 1.706 3.798 3.825 3.815 13.312.016 57.503.049 70.815.066a3.828 3.828 0 0 0 3.842-3.798c-.017-5.837-.017-16.836 0-22.64z" stroke="#E1E4E5" stroke-width="4" stroke-miterlimit="10" stroke-linecap="round" stroke-linejoin="round"/><path d="M379.377 205.957c0-2.104-1.706-3.798-3.825-3.798-13.312-.016-57.503-.049-70.815-.065-2.119 0-3.841 1.693-3.841 3.797 0 5.804-.017 16.82-.017 22.623 0 2.105 1.705 3.798 3.825 3.815 13.312.016 57.503.049 70.815.065 2.119 0 3.841-1.693 3.841-3.797 0-5.821.017-16.836.017-22.64zm-.497 60.867c0-2.104-1.706-3.798-3.825-3.814-13.312-.017-57.503-.05-70.815-.066a3.827 3.827 0 0 0-3.841 3.798c0 5.804-.017 16.819-.017 22.623a3.803 3.803 0 0 0 3.825 3.798c13.312.016 57.503.049 70.815.065 2.119 0 3.825-1.693 3.825-3.798.016-5.787.016-16.802.033-22.606zm121.516-90.853c0-2.104-1.706-3.798-3.825-3.814-13.312-.017-57.503-.049-70.815-.066a3.803 3.803 0 0 0-3.825 3.798c0 5.804-.033 16.819-.033 22.623a3.803 3.803 0 0 0 3.825 3.798c13.312.016 57.503.049 70.815.066 2.119 0 3.825-1.694 3.825-3.798.033-5.788.033-16.803.033-22.607zm-1.078 60.8a3.802 3.802 0 0 0-3.824-3.797c-13.312-.017-57.504-.05-70.816-.066a3.802 3.802 0 0 0-3.824 3.798c-.033 5.803-.033 16.819-.033 22.623 0 2.104 1.705 3.797 3.824 3.814 13.312.016 57.504.049 70.816.066a3.802 3.802 0 0 0 3.824-3.798c.017-5.82.033-16.836.033-22.64zM264.139 53.88c0-2.104-1.705-3.798-3.824-3.814-13.312-.017-57.504-.05-70.816-.066a3.802 3.802 0 0 0-3.824 3.798c0 5.803-.017 16.819-.017 22.623 0 2.104 1.706 3.798 3.825 3.798 13.312.016 57.503.049 70.815.065 2.119 0 3.825-1.693 3.825-3.797 0-5.788.016-16.803.016-22.607zm-1.077 60.8a3.802 3.802 0 0 0-3.824-3.798c-13.312-.016-57.504-.049-70.816-.065a3.827 3.827 0 0 0-3.841 3.797c0 5.804-.016 16.82-.016 22.623 0 2.105 1.705 3.798 3.824 3.815 13.312.016 57.504.049 70.816.065a3.802 3.802 0 0 0 3.824-3.797c.017-5.821.033-16.836.033-22.64zm37.37-30.204c0-2.105-1.705-3.798-3.825-3.815-13.312-.016-57.503-.049-70.815-.065-2.119 0-3.825 1.693-3.825 3.798 0 5.803-.016 16.819-.016 22.622a3.802 3.802 0 0 0 3.824 3.798c13.312.017 57.504.05 70.816.066a3.827 3.827 0 0 0 3.841-3.798c-.017-5.787 0-16.803 0-22.606zm-.512 60.862a3.802 3.802 0 0 0-3.824-3.798c-13.312-.016-57.504-.049-70.816-.065-2.119 0-3.841 1.693-3.841 3.798 0 5.803-.017 16.819-.017 22.622 0 2.105 1.706 3.798 3.825 3.798 13.312.017 57.503.05 70.815.066 2.12 0 3.842-1.693 3.842-3.798 0-5.803.016-16.819.016-22.623zm121.513-91.33c.033-2.105-1.706-3.798-3.809-3.815-13.328-.016-57.519-.05-70.831-.066a3.802 3.802 0 0 0-3.825 3.798c0 5.804-.017 16.82-.017 22.623 0 2.105 1.706 3.798 3.825 3.798 13.312.016 57.503.05 70.832.066 2.086 0 3.825-1.694 3.825-3.798V54.008zm-1.059 60.806c0-2.105-1.705-3.798-3.824-3.815-13.312-.016-57.503-.049-70.815-.065-2.12 0-3.842 1.693-3.842 3.798 0 5.803-.016 16.819-.016 22.622 0 2.105 1.705 3.798 3.824 3.815 13.312.016 57.504.049 70.816.065a3.802 3.802 0 0 0 3.824-3.797c.033-5.804.033-16.803.033-22.623z" stroke="#E1E4E5" stroke-width="4" stroke-miterlimit="10" stroke-linecap="round" stroke-linejoin="round"/><path d="M457.742 84.194c0-2.105-1.738-3.798-3.824-3.798-13.329-.016-57.52-.05-70.832-.066-2.119 0-3.825 1.694-3.825 3.798 0 5.804-.016 16.819-.016 22.623a3.802 3.802 0 0 0 3.824 3.798c13.312.016 57.504.049 70.832.066 2.086 0 3.825-1.694 3.825-3.798 0-5.804 0-16.803.016-22.623zm-.495 60.866a3.802 3.802 0 0 0-3.825-3.798c-13.328-.016-57.503-.049-70.832-.066-2.119 0-3.841 1.694-3.841 3.798 0 5.804-.016 16.819-.016 22.623 0 2.104 1.705 3.798 3.824 3.814 13.312.017 57.504.05 70.832.066a3.802 3.802 0 0 0 3.825-3.798c0-5.82 0-16.835.033-22.639zM342.802 53.944a3.802 3.802 0 0 0-3.825-3.798c-13.312-.016-57.503-.049-70.815-.065a3.827 3.827 0 0 0-3.841 3.797c0 5.804-.017 16.82-.017 22.623 0 2.105 1.706 3.798 3.825 3.815 13.312.016 57.503.049 70.815.066 2.12 0 3.842-1.694 3.842-3.798 0-5.82 0-16.836.016-22.64zm-1.092 60.799a3.802 3.802 0 0 0-3.824-3.798c-13.312-.017-57.504-.049-70.816-.066a3.802 3.802 0 0 0-3.824 3.798c0 5.804-.017 16.819-.017 22.623 0 2.104 1.706 3.798 3.825 3.798 13.312.016 57.503.049 70.815.065a3.826 3.826 0 0 0 3.841-3.797v-22.623z" stroke="#E1E4E5" stroke-width="4" stroke-miterlimit="10" stroke-linecap="round" stroke-linejoin="round"/><path d="M379.08 84.061a3.802 3.802 0 0 0-3.824-3.798c-13.312-.016-57.504-.049-70.816-.066a3.828 3.828 0 0 0-3.841 3.798c0 5.804-.016 16.82-.016 22.623a3.802 3.802 0 0 0 3.824 3.798c13.312.017 57.504.049 70.816.066 2.119 0 3.841-1.694 3.841-3.798 0-5.804.016-16.803.016-22.623zm-.496 60.871c0-2.104-1.706-3.797-3.825-3.797-13.312-.017-57.503-.05-70.815-.066-2.119 0-3.825 1.693-3.825 3.798 0 5.803-.016 16.819-.016 22.622 0 2.105 1.705 3.798 3.824 3.815 13.312.016 57.504.049 70.816.066a3.802 3.802 0 0 0 3.824-3.798c0-5.82 0-16.819.017-22.64zm121.529-90.837c0-2.104-1.739-3.798-3.825-3.798-13.329-.016-57.503-.049-70.832-.065-2.119 0-3.825 1.693-3.825 3.797 0 5.804 0 16.82-.033 22.623 0 2.105 1.706 3.798 3.825 3.815 13.329.016 57.503.049 70.832.065 2.086 0 3.824-1.693 3.824-3.797 0-5.837 0-16.836.034-22.64zm-1.092 60.793a3.802 3.802 0 0 0-3.824-3.797c-13.312-.017-57.504-.05-70.816-.066a3.802 3.802 0 0 0-3.824 3.798c0 5.803-.033 16.819-.033 22.622a3.802 3.802 0 0 0 3.824 3.798c13.312.017 57.503.05 70.815.066a3.802 3.802 0 0 0 3.825-3.798c.033-5.82.033-16.819.033-22.623zm-78.068 182.808c0-2.105-1.706-3.798-3.825-3.815-13.312-.016-57.503-.049-70.815-.066a3.803 3.803 0 0 0-3.825 3.798c0 5.804-.017 16.82-.017 22.623 0 2.105 1.706 3.798 3.825 3.798 13.312.017 57.487.049 70.815.066a3.803 3.803 0 0 0 3.825-3.798c-.017-5.787.017-16.803.017-22.606zm78.424 121.222c0-2.105-1.706-3.798-3.825-3.815-13.312-.016-57.503-.049-70.815-.065a3.826 3.826 0 0 0-3.841 3.797c0 5.804-.017 16.82-.017 22.623 0 2.105 1.705 3.798 3.825 3.815 13.312.016 57.503.049 70.815.065 2.119 0 3.841-1.693 3.841-3.798 0-5.803 0-16.819.017-22.622zm-1.092 60.803c0-2.104-1.705-3.798-3.825-3.814-13.312-.016-57.503-.049-70.815-.066-2.119 0-3.825 1.694-3.825 3.798 0 5.804-.016 16.819-.016 22.623 0 2.104 1.705 3.798 3.824 3.814 13.312.017 57.504.05 70.816.066a3.827 3.827 0 0 0 3.841-3.798c-.017-5.804 0-16.819 0-22.623z" stroke="#E1E4E5" stroke-width="4" stroke-miterlimit="10" stroke-linecap="round" stroke-linejoin="round"/><path d="M535.654 449.532c0-2.105-1.706-3.798-3.825-3.815-13.312-.016-57.503-.049-70.815-.066-2.119 0-3.841 1.694-3.841 3.798 0 5.804-.017 16.82-.017 22.623 0 2.105 1.705 3.798 3.825 3.814 13.312.017 57.503.05 70.815.066 2.119 0 3.841-1.693 3.841-3.798 0-5.82.017-16.819.017-22.622zm-.513 60.866c0-2.105-1.705-3.798-3.824-3.815-13.312-.016-57.504-.049-70.816-.066a3.828 3.828 0 0 0-3.841 3.798c0 5.804-.017 16.82-.017 22.623 0 2.105 1.706 3.798 3.825 3.815 13.312.016 57.503.049 70.815.065a3.802 3.802 0 0 0 3.825-3.798c.033-5.82.033-16.819.033-22.622zm121.529-91.335c0-2.104-1.705-3.797-3.825-3.814-13.312-.016-57.503-.049-70.815-.066a3.827 3.827 0 0 0-3.841 3.798c0 5.804-.017 16.819-.017 22.623 0 2.104 1.706 3.798 3.825 3.814 13.312.017 57.503.05 70.815.066a3.802 3.802 0 0 0 3.825-3.798c.033-5.82.033-16.819.033-22.623zm-1.075 60.807c0-2.105-1.705-3.798-3.824-3.815-13.329-.016-57.504-.049-70.816-.066-2.119 0-3.841 1.694-3.841 3.798 0 5.804-.016 16.819-.016 22.623 0 2.105 1.705 3.798 3.824 3.814 13.312.017 57.487.05 70.816.066a3.802 3.802 0 0 0 3.824-3.798c.017-5.82.033-16.819.033-22.622z" stroke="#E1E4E5" stroke-width="4" stroke-miterlimit="10" stroke-linecap="round" stroke-linejoin="round"/><path d="M692.963 449.253c0-2.104-1.705-3.798-3.824-3.814-13.312-.017-57.504-.05-70.816-.066a3.827 3.827 0 0 0-3.841 3.798c0 5.804-.016 16.819-.016 22.623 0 2.104 1.705 3.798 3.824 3.814 13.312.017 57.503.049 70.815.066a3.803 3.803 0 0 0 3.825-3.798c.033-5.82.033-16.819.033-22.623zm-.513 60.864c0-2.105-1.706-3.798-3.825-3.815-13.312-.016-57.487-.049-70.815-.066a3.803 3.803 0 0 0-3.825 3.798c0 5.804-.016 16.82-.016 22.623 0 2.105 1.705 3.798 3.824 3.814 13.312.017 57.503.05 70.816.066a3.802 3.802 0 0 0 3.824-3.798c.017-5.82.017-16.819.017-22.622zm-114.426-91.133c0-2.104-1.706-3.797-3.825-3.797-13.312-.017-57.503-.05-70.815-.066a3.802 3.802 0 0 0-3.825 3.798c0 5.803-.017 16.819-.017 22.623 0 2.104 1.706 3.797 3.825 3.814 13.312.016 57.503.049 70.815.066a3.803 3.803 0 0 0 3.825-3.798c0-5.82 0-16.819.017-22.64zm-1.076 60.8c0-2.105-1.706-3.798-3.825-3.815-13.312-.016-57.503-.049-70.815-.065-2.12 0-3.825 1.693-3.825 3.797 0 5.804-.017 16.82-.017 22.623 0 2.105 1.706 3.798 3.825 3.815 13.312.016 57.503.049 70.815.065 2.12 0 3.825-1.693 3.825-3.797 0-5.804 0-16.803.017-22.623z" stroke="#E1E4E5" stroke-width="4" stroke-miterlimit="10" stroke-linecap="round" stroke-linejoin="round"/><path d="M614.301 449.123c0-2.105-1.705-3.798-3.824-3.814-13.312-.017-57.504-.05-70.816-.066a3.827 3.827 0 0 0-3.841 3.798c0 5.803-.016 16.819-.016 22.623 0 2.104 1.705 3.797 3.824 3.814 13.312.016 57.504.049 70.816.066a3.802 3.802 0 0 0 3.824-3.798c.033-5.82.033-16.819.033-22.623zm-.496 60.861c0-2.105-1.705-3.798-3.825-3.814-13.312-.017-57.503-.05-70.815-.066a3.827 3.827 0 0 0-3.841 3.798c0 5.803-.017 16.819-.017 22.622 0 2.105 1.706 3.798 3.825 3.815 13.312.016 57.503.049 70.815.066a3.803 3.803 0 0 0 3.825-3.798c.017-5.82.017-16.819.033-22.623zm121.513-90.849c0-2.104-1.706-3.797-3.825-3.797-13.312-.017-57.503-.05-70.815-.066a3.802 3.802 0 0 0-3.825 3.798c0 5.803-.033 16.819-.033 22.622 0 2.105 1.705 3.798 3.825 3.815 13.312.016 57.503.049 70.815.066 2.119 0 3.825-1.694 3.825-3.798.033-5.82.033-16.836.033-22.64zm-1.075 60.797c0-2.104-1.705-3.798-3.825-3.814-13.312-.017-57.503-.05-70.815-.066-2.119 0-3.825 1.693-3.825 3.798-.033 5.804-.033 16.819-.033 22.623 0 2.104 1.706 3.798 3.825 3.814 13.312.016 57.487.049 70.815.066 2.119 0 3.825-1.694 3.825-3.798.016-5.804.033-16.819.033-22.623zm-234.27-182.364c0-2.104-1.706-3.798-3.825-3.814-13.312-.017-57.503-.05-70.815-.066a3.827 3.827 0 0 0-3.841 3.798c0 5.804-.017 16.819-.017 22.623a3.803 3.803 0 0 0 3.825 3.798c13.312.016 57.503.049 70.815.065 2.119 0 3.825-1.693 3.825-3.798.016-5.803.033-16.802.033-22.606zm-1.077 60.798a3.802 3.802 0 0 0-3.825-3.798c-13.312-.017-57.503-.05-70.815-.066-2.119 0-3.841 1.693-3.841 3.798 0 5.804-.017 16.819-.017 22.623 0 2.104 1.706 3.798 3.825 3.814 13.312.016 57.503.049 70.815.066a3.828 3.828 0 0 0 3.842-3.798c0-5.837.016-16.836.016-22.639zm37.371-30.202c0-2.105-1.706-3.798-3.825-3.815-13.312-.016-57.503-.049-70.815-.065a3.827 3.827 0 0 0-3.842 3.798c0 5.803-.016 16.819-.016 22.622a3.802 3.802 0 0 0 3.825 3.798c13.312.017 57.503.05 70.815.066 2.119 0 3.825-1.693 3.825-3.798a10631 10631 0 0 0 .033-22.606zm-.513 60.862c0-2.104-1.706-3.798-3.825-3.798-13.312-.016-57.503-.049-70.815-.065-2.119 0-3.825 1.693-3.825 3.798 0 5.803-.016 16.819-.016 22.622a3.802 3.802 0 0 0 3.824 3.798c13.312.017 57.504.05 70.816.066a3.827 3.827 0 0 0 3.841-3.798c-.017-5.803 0-16.819 0-22.623zm120.453-30.527c0-2.104-1.705-3.798-3.824-3.814-13.329-.017-57.52-.049-70.832-.066a3.827 3.827 0 0 0-3.841 3.798c0 5.804-.017 16.819-.017 22.623a3.803 3.803 0 0 0 3.825 3.798c13.312.016 57.503.049 70.831.065 2.087 0 3.825-1.693 3.825-3.797.017-5.788.017-16.803.033-22.607zm37.369-30.612a3.803 3.803 0 0 0-3.825-3.798c-13.312-.016-57.503-.049-70.815-.066-2.119 0-3.825 1.694-3.825 3.798 0 5.804-.016 16.819-.016 22.623a3.802 3.802 0 0 0 3.824 3.798c13.312.016 57.52.049 70.816.066a3.802 3.802 0 0 0 3.824-3.798c-.016-5.804.017-16.819.017-22.623z" stroke="#E1E4E5" stroke-width="4" stroke-miterlimit="10" stroke-linecap="round" stroke-linejoin="round"/><path d="M693.064 388.751c0-2.104-1.705-3.798-3.824-3.814-13.312-.016-57.504-.049-70.816-.066-2.119 0-3.841 1.694-3.841 3.798 0 5.804-.017 16.819-.017 22.623 0 2.104 1.706 3.798 3.825 3.814 13.312.017 57.52.05 70.815.066a3.802 3.802 0 0 0 3.825-3.798c0-5.804.033-16.819.033-22.623zm-114.445-91.119a3.803 3.803 0 0 0-3.825-3.798c-13.312-.016-57.503-.049-70.815-.065-2.119 0-3.841 1.693-3.841 3.798 0 5.803-.017 16.819-.017 22.622 0 2.105 1.706 3.798 3.825 3.815 13.312.016 57.503.049 70.815.065a3.827 3.827 0 0 0 3.842-3.797c.016-5.837.016-16.836.016-22.64zm-1.075 60.799c0-2.105-1.706-3.798-3.825-3.798-13.312-.017-57.503-.05-70.815-.066a3.827 3.827 0 0 0-3.841 3.798c0 5.804-.017 16.819-.017 22.623a3.803 3.803 0 0 0 3.825 3.798c13.312.016 57.503.049 70.815.065 2.119 0 3.825-1.693 3.825-3.798.016-5.803.033-16.819.033-22.622z" stroke="#E1E4E5" stroke-width="4" stroke-miterlimit="10" stroke-linecap="round" stroke-linejoin="round"/><path d="M614.914 327.752a3.802 3.802 0 0 0-3.825-3.798c-13.312-.017-57.503-.049-70.815-.066-2.119 0-3.825 1.694-3.825 3.798 0 5.804-.016 16.819-.016 22.623a3.802 3.802 0 0 0 3.824 3.798c13.312.016 57.504.049 70.816.065a3.827 3.827 0 0 0 3.841-3.797c-.017-5.804 0-16.82 0-22.623zm-.513 60.861c0-2.105-1.706-3.798-3.825-3.798-13.312-.017-57.503-.05-70.815-.066-2.119 0-3.825 1.693-3.825 3.798 0 5.804-.016 16.819-.016 22.623 0 2.104 1.705 3.798 3.824 3.814 13.312.016 57.503.049 70.815.066a3.828 3.828 0 0 0 3.842-3.798v-22.639zm121.529-90.845c0-2.105-1.706-3.798-3.825-3.798-13.312-.017-57.503-.05-70.815-.066-2.119 0-3.825 1.693-3.825 3.798-.033 5.804-.033 16.819-.033 22.623 0 2.104 1.705 3.798 3.825 3.814 13.312.016 57.503.049 70.815.066 2.119 0 3.825-1.694 3.825-3.798.016-5.82.033-16.836.033-22.639zm-1.076 60.798a3.803 3.803 0 0 0-3.825-3.798c-13.328-.016-57.503-.049-70.831-.066-2.087 0-3.825 1.694-3.825 3.798 0 5.804 0 16.819-.033 22.623 0 2.105 1.738 3.798 3.825 3.798 13.328.016 57.503.049 70.831.066a3.803 3.803 0 0 0 3.825-3.798c.017-5.804.017-16.803.033-22.623zM500.769 175.757a3.803 3.803 0 0 0-3.825-3.798c-13.312-.016-57.503-.049-70.815-.066-2.119 0-3.825 1.694-3.825 3.798 0 5.804-.016 16.819-.016 22.623a3.802 3.802 0 0 0 3.825 3.798c13.312.016 57.503.049 70.815.066a3.827 3.827 0 0 0 3.841-3.798c-.016-5.804 0-16.803 0-22.623zm-1.077 60.797c0-2.105-1.705-3.798-3.825-3.815-13.312-.016-57.503-.049-70.815-.065a3.826 3.826 0 0 0-3.841 3.797c0 5.804-.017 16.82-.017 22.623 0 2.105 1.706 3.798 3.825 3.798 13.312.017 57.503.05 70.815.066 2.12 0 3.842-1.693 3.842-3.798 0-5.787.016-16.803.016-22.606z" stroke="#E1E4E5" stroke-width="4" stroke-miterlimit="10" stroke-linecap="round" stroke-linejoin="round"/><path d="M537.062 206.368c0-2.104-1.706-3.798-3.825-3.798-13.312-.016-57.503-.049-70.815-.065a3.802 3.802 0 0 0-3.825 3.798c0 5.803-.017 16.819-.017 22.622 0 2.105 1.706 3.798 3.825 3.798 13.312.017 57.503.05 70.815.066a3.802 3.802 0 0 0 3.825-3.798c0-5.82.017-16.819.017-22.623zm-.515 60.864a3.802 3.802 0 0 0-3.824-3.798c-13.312-.017-57.504-.049-70.816-.066-2.119 0-3.841 1.694-3.841 3.798 0 5.804-.016 16.819-.016 22.623 0 2.104 1.705 3.798 3.824 3.814 13.312.017 57.504.049 70.816.066 2.119 0 3.841-1.693 3.841-3.798 0-5.837.016-16.836.016-22.639zm121.532-91.327a3.802 3.802 0 0 0-3.824-3.798c-13.312-.016-57.504-.049-70.816-.065a3.802 3.802 0 0 0-3.824 3.798c0 5.803-.017 16.819-.017 22.622a3.802 3.802 0 0 0 3.825 3.798c13.312.017 57.503.05 70.815.066 2.119 0 3.825-1.693 3.825-3.798.016-5.803.016-16.819.016-22.623zm-1.077 60.796a3.802 3.802 0 0 0-3.824-3.798c-13.312-.016-57.504-.049-70.816-.065-2.119 0-3.841 1.693-3.841 3.797 0 5.804-.017 16.82-.017 22.623 0 2.105 1.706 3.798 3.825 3.798 13.312.017 57.487.049 70.815.066a3.802 3.802 0 0 0 3.825-3.798c0-5.804.033-16.819.033-22.623z" stroke="#E1E4E5" stroke-width="4" stroke-miterlimit="10" stroke-linecap="round" stroke-linejoin="round"/><path d="M694.355 206.09a3.802 3.802 0 0 0-3.825-3.798c-13.312-.016-57.503-.049-70.815-.066a3.828 3.828 0 0 0-3.841 3.798c0 5.804-.017 16.819-.017 22.623 0 2.104 1.706 3.798 3.825 3.814 13.312.017 57.503.05 70.815.066a3.802 3.802 0 0 0 3.825-3.798c.033-5.836.033-16.835.033-22.639zm-.497 60.864c0-2.104-1.705-3.798-3.825-3.814-13.312-.017-57.486-.049-70.815-.066-2.119 0-3.841 1.694-3.841 3.798 0 5.804-.017 16.819-.017 22.623 0 2.104 1.706 3.798 3.825 3.798 13.312.016 57.503.049 70.815.065 2.12 0 3.825-1.693 3.825-3.797.033-5.804.033-16.803.033-22.607zm-114.426-91.115c0-2.105-1.705-3.798-3.825-3.815-13.312-.016-57.503-.049-70.815-.066-2.119 0-3.841 1.694-3.841 3.798 0 5.804-.017 16.82-.017 22.623 0 2.105 1.706 3.798 3.825 3.798 13.312.017 57.503.049 70.815.066 2.119 0 3.841-1.694 3.841-3.798 0-5.804 0-16.803.017-22.606zm-1.076 60.802c0-2.104-1.706-3.798-3.825-3.798-13.312-.016-57.503-.049-70.815-.065a3.802 3.802 0 0 0-3.825 3.798c0 5.803-.017 16.819-.017 22.622 0 2.105 1.706 3.798 3.825 3.815 13.312.016 57.503.049 70.815.066a3.828 3.828 0 0 0 3.842-3.798c-.017-5.837-.017-16.836 0-22.64z" stroke="#E1E4E5" stroke-width="4" stroke-miterlimit="10" stroke-linecap="round" stroke-linejoin="round"/><path d="M615.707 205.957a3.803 3.803 0 0 0-3.825-3.798c-13.312-.016-57.503-.049-70.815-.065-2.119 0-3.841 1.693-3.841 3.797 0 5.804-.017 16.82-.017 22.623 0 2.105 1.706 3.798 3.825 3.815 13.312.016 57.503.049 70.815.065 2.119 0 3.841-1.693 3.841-3.797 0-5.821.017-16.836.017-22.64zm-.497 60.867c0-2.104-1.705-3.798-3.825-3.814-13.312-.017-57.503-.05-70.815-.066a3.827 3.827 0 0 0-3.841 3.798c0 5.804-.017 16.819-.017 22.623 0 2.104 1.706 3.798 3.825 3.798 13.312.016 57.503.049 70.815.065 2.119 0 3.825-1.693 3.825-3.798.016-5.787.016-16.802.033-22.606zm121.516-90.853c0-2.104-1.706-3.798-3.825-3.814-13.312-.017-57.503-.049-70.815-.066-2.119 0-3.825 1.694-3.825 3.798 0 5.804-.033 16.819-.033 22.623a3.803 3.803 0 0 0 3.825 3.798c13.312.016 57.503.049 70.815.066 2.119 0 3.825-1.694 3.825-3.798.033-5.788.033-16.803.033-22.607zm-1.077 60.8c0-2.104-1.706-3.797-3.825-3.797-13.312-.017-57.503-.05-70.815-.066a3.802 3.802 0 0 0-3.825 3.798c-.033 5.803-.033 16.819-.033 22.623 0 2.104 1.705 3.797 3.824 3.814 13.312.016 57.504.049 70.816.066a3.802 3.802 0 0 0 3.824-3.798c.017-5.82.034-16.836.034-22.64zM500.47 53.88c0-2.104-1.706-3.798-3.825-3.814-13.312-.017-57.503-.05-70.815-.066a3.802 3.802 0 0 0-3.825 3.798c0 5.803-.017 16.819-.017 22.623 0 2.104 1.706 3.798 3.825 3.798 13.312.016 57.503.049 70.815.065a3.802 3.802 0 0 0 3.825-3.797c0-5.788.017-16.803.017-22.607zm-1.077 60.8c0-2.104-1.706-3.798-3.825-3.798-13.312-.016-57.503-.049-70.815-.065a3.827 3.827 0 0 0-3.842 3.797c0 5.804-.016 16.82-.016 22.623 0 2.105 1.705 3.798 3.824 3.815 13.312.016 57.504.049 70.816.065a3.802 3.802 0 0 0 3.824-3.797c.017-5.821.034-16.836.034-22.64zm37.369-30.204c0-2.105-1.705-3.798-3.825-3.815-13.312-.016-57.503-.049-70.815-.065-2.119 0-3.825 1.693-3.825 3.798 0 5.803-.016 16.819-.016 22.622a3.802 3.802 0 0 0 3.825 3.798c13.312.017 57.503.05 70.815.066a3.827 3.827 0 0 0 3.841-3.798c-.016-5.787 0-16.803 0-22.606zm-.512 60.862a3.802 3.802 0 0 0-3.824-3.798c-13.312-.016-57.504-.049-70.816-.065-2.119 0-3.841 1.693-3.841 3.798 0 5.803-.016 16.819-.016 22.622a3.802 3.802 0 0 0 3.824 3.798c13.312.017 57.504.05 70.816.066 2.119 0 3.841-1.693 3.841-3.798 0-5.803.016-16.819.016-22.623zm121.513-91.33c.033-2.105-1.706-3.798-3.808-3.815-13.329-.016-57.52-.05-70.832-.066a3.802 3.802 0 0 0-3.825 3.798c0 5.804-.017 16.82-.017 22.623 0 2.105 1.706 3.798 3.825 3.798 13.312.016 57.503.05 70.832.066 2.086 0 3.825-1.694 3.825-3.798V54.008zm-1.058 60.806c0-2.105-1.706-3.798-3.825-3.815-13.312-.016-57.503-.049-70.815-.065-2.12 0-3.842 1.693-3.842 3.798 0 5.803-.016 16.819-.016 22.622 0 2.105 1.705 3.798 3.825 3.815 13.312.016 57.503.049 70.815.065a3.802 3.802 0 0 0 3.824-3.797c.034-5.804.034-16.803.034-22.623z" stroke="#E1E4E5" stroke-width="4" stroke-miterlimit="10" stroke-linecap="round" stroke-linejoin="round"/><path d="M694.072 84.194c0-2.105-1.738-3.798-3.824-3.798-13.329-.016-57.52-.05-70.832-.066-2.119 0-3.825 1.694-3.825 3.798 0 5.804-.016 16.819-.016 22.623a3.802 3.802 0 0 0 3.824 3.798c13.312.016 57.504.049 70.832.066 2.086 0 3.825-1.694 3.825-3.798 0-5.804 0-16.803.016-22.623zm-.495 60.866a3.802 3.802 0 0 0-3.825-3.798c-13.328-.016-57.503-.049-70.831-.066-2.12 0-3.842 1.694-3.842 3.798 0 5.804-.016 16.819-.016 22.623 0 2.104 1.705 3.798 3.824 3.814 13.312.017 57.504.05 70.832.066a3.802 3.802 0 0 0 3.825-3.798c0-5.82 0-16.835.033-22.639zM579.132 53.944a3.802 3.802 0 0 0-3.824-3.798c-13.312-.016-57.504-.049-70.816-.065a3.827 3.827 0 0 0-3.841 3.797c0 5.804-.016 16.82-.016 22.623 0 2.105 1.705 3.798 3.824 3.815 13.312.016 57.504.049 70.816.066 2.119 0 3.841-1.694 3.841-3.798 0-5.82 0-16.836.016-22.64zm-1.092 60.799a3.802 3.802 0 0 0-3.824-3.798c-13.312-.017-57.503-.049-70.815-.066a3.802 3.802 0 0 0-3.825 3.798c0 5.804-.017 16.819-.017 22.623 0 2.104 1.706 3.798 3.825 3.798 13.312.016 57.503.049 70.815.065a3.826 3.826 0 0 0 3.841-3.797v-22.623z" stroke="#E1E4E5" stroke-width="4" stroke-miterlimit="10" stroke-linecap="round" stroke-linejoin="round"/><path d="M615.411 84.061c0-2.104-1.706-3.798-3.825-3.798-13.312-.016-57.503-.049-70.815-.066a3.828 3.828 0 0 0-3.842 3.798c0 5.804-.016 16.82-.016 22.623a3.802 3.802 0 0 0 3.825 3.798c13.312.017 57.503.049 70.815.066 2.119 0 3.841-1.694 3.841-3.798 0-5.804.017-16.803.017-22.623zm-.497 60.871c0-2.104-1.705-3.797-3.825-3.797-13.312-.017-57.503-.05-70.815-.066-2.119 0-3.825 1.693-3.825 3.798 0 5.803-.016 16.819-.016 22.622 0 2.105 1.705 3.798 3.824 3.815 13.312.016 57.504.049 70.816.066a3.802 3.802 0 0 0 3.824-3.798c0-5.82 0-16.819.017-22.64zm121.529-90.837c0-2.104-1.739-3.798-3.825-3.798-13.329-.016-57.503-.049-70.832-.065a3.802 3.802 0 0 0-3.824 3.797c0 5.804 0 16.82-.034 22.623 0 2.105 1.706 3.798 3.825 3.815 13.329.016 57.503.049 70.832.065 2.086 0 3.825-1.693 3.825-3.797 0-5.837 0-16.836.033-22.64zm-1.091 60.793c0-2.104-1.706-3.797-3.825-3.797-13.312-.017-57.503-.05-70.815-.066a3.802 3.802 0 0 0-3.825 3.798c0 5.803-.033 16.819-.033 22.622a3.802 3.802 0 0 0 3.824 3.798c13.312.017 57.504.05 70.816.066a3.802 3.802 0 0 0 3.824-3.798c.033-5.82.034-16.819.034-22.623zm-78.069 182.808c0-2.105-1.706-3.798-3.825-3.815-13.312-.016-57.503-.049-70.815-.066a3.803 3.803 0 0 0-3.825 3.798c0 5.804-.017 16.82-.017 22.623 0 2.105 1.706 3.798 3.825 3.798 13.312.017 57.487.049 70.815.066a3.803 3.803 0 0 0 3.825-3.798c-.016-5.787.017-16.803.017-22.606z" stroke="#E1E4E5" stroke-width="4" stroke-miterlimit="10" stroke-linecap="round" stroke-linejoin="round"/><path fill-rule="evenodd" clip-rule="evenodd" d="M507.767 286.773v160.33l.163-.158-.038 7.953 92.219 91.663h-12.292l-80.052-79.608v79.564h-9.71v-76.529l-76.95 76.573h-13.506l90.456-89.934V286.773h9.71z" fill="#fff" stroke="#E1E4E5" stroke-width="4"/><path d="M524.31 462.761c0-6.113-4.955-11.069-11.068-11.069h-19.604c-6.113 0-11.069 4.956-11.069 11.069s4.956 11.069 11.069 11.069h19.604c6.113 0 11.068-4.956 11.068-11.069z" fill="#fff" stroke="#E1E4E5" stroke-width="4"/><rect x="280" y="81.405" width="463.215" height="273.715" rx="8" fill="#fff" stroke="#E1E4E5" stroke-width="4"/><path d="M475.995 227.676c0-1.067.865-1.932 1.932-1.932h49.804a1.932 1.932 0 0 1 0 3.864h-49.804a1.932 1.932 0 0 1-1.932-1.932zm53.668 61.6a1.932 1.932 0 0 1-1.932 1.932h-49.804a1.932 1.932 0 0 1 0-3.864h49.804c1.067 0 1.932.865 1.932 1.932zm-66.774-40.63c0-1.067.865-1.932 1.932-1.932h76.016a1.932 1.932 0 0 1 0 3.864h-76.016a1.932 1.932 0 0 1-1.932-1.932zm79.88 19.66a1.932 1.932 0 0 1-1.932 1.932h-76.016a1.932 1.932 0 0 1 0-3.864h76.016c1.067 0 1.932.865 1.932 1.932zm-3.932-97.642c0 20.281-16.153 36.663-36.008 36.663-19.855 0-36.008-16.382-36.008-36.663 0-20.282 16.153-36.664 36.008-36.664 19.855 0 36.008 16.382 36.008 36.664z" fill="#fff" stroke="#E1E4E5" stroke-width="4"/><circle cx="503.484" cy="160.179" r="7.83" fill="#fff" stroke="#E1E4E5" stroke-width="4"/><path d="M490.413 180.493a5.863 5.863 0 0 1 5.863-5.863h15.728a5.864 5.864 0 1 1 0 11.727h-15.728a5.863 5.863 0 0 1-5.863-5.864zm107.47 47.183c0-1.067.865-1.932 1.932-1.932h49.804a1.932 1.932 0 0 1 0 3.864h-49.804a1.932 1.932 0 0 1-1.932-1.932zm53.669 61.6a1.932 1.932 0 0 1-1.932 1.932h-49.804a1.932 1.932 0 0 1 0-3.864h49.804c1.067 0 1.932.865 1.932 1.932zm-66.775-40.63c0-1.067.865-1.932 1.932-1.932h76.017a1.932 1.932 0 0 1 0 3.864h-76.017a1.932 1.932 0 0 1-1.932-1.932zm79.881 19.66a1.932 1.932 0 0 1-1.932 1.932h-76.017a1.932 1.932 0 0 1 0-3.864h76.017c1.067 0 1.932.865 1.932 1.932zm-3.932-97.642c0 20.281-16.154 36.663-36.008 36.663-19.855 0-36.009-16.382-36.009-36.663 0-20.282 16.154-36.664 36.009-36.664 19.854 0 36.008 16.382 36.008 36.664z" fill="#fff" stroke="#E1E4E5" stroke-width="4"/><circle cx="625.372" cy="160.179" r="7.83" fill="#fff" stroke="#E1E4E5" stroke-width="4"/><path d="M612.301 180.493a5.864 5.864 0 0 1 5.864-5.863h15.728a5.863 5.863 0 0 1 0 11.727h-15.728a5.864 5.864 0 0 1-5.864-5.864zm-258.195 47.183c0-1.067.865-1.932 1.932-1.932h49.804a1.932 1.932 0 0 1 0 3.864h-49.804a1.932 1.932 0 0 1-1.932-1.932zm53.669 61.6a1.932 1.932 0 0 1-1.932 1.932h-49.804a1.932 1.932 0 0 1 0-3.864h49.804c1.067 0 1.932.865 1.932 1.932zM341 248.646c0-1.067.865-1.932 1.932-1.932h76.017a1.932 1.932 0 0 1 0 3.864h-76.017a1.932 1.932 0 0 1-1.932-1.932zm79.88 19.66a1.932 1.932 0 0 1-1.931 1.932h-76.017a1.932 1.932 0 0 1 0-3.864h76.017c1.066 0 1.931.865 1.931 1.932zm-3.932-97.642c0 20.281-16.153 36.663-36.008 36.663-19.855 0-36.008-16.382-36.008-36.663 0-20.282 16.153-36.664 36.008-36.664 19.855 0 36.008 16.382 36.008 36.664z" fill="#fff" stroke="#E1E4E5" stroke-width="4"/><circle cx="381.595" cy="160.179" r="7.83" fill="#fff" stroke="#E1E4E5" stroke-width="4"/><path d="M368.524 180.493a5.863 5.863 0 0 1 5.864-5.863h15.727a5.863 5.863 0 1 1 0 11.727h-15.727a5.863 5.863 0 0 1-5.864-5.864zM483.465 347.14h38.859c.741 0 1.986.892 1.986 2.869v10.955c0 1.978-1.245 2.869-1.986 2.869h-38.859c-.741 0-1.985-.891-1.985-2.869v-10.955c0-1.977 1.244-2.869 1.985-2.869z" fill="#fff" stroke="#E1E4E5" stroke-width="4"/><path d="M264.068 181.2c-.611 2.44.199 4.977 1.534 7.108.944 1.505 2.263-.157 4.186-.424 2.976-.417 4.86-3.566 5.504-11.239.298-5.605.157-8.401-.155-8.89-1.111-1.752-3.97-2.338-6.224-2.169" fill="#30327E"/><path fill-rule="evenodd" clip-rule="evenodd" d="M269.469 514.707s-.181 11.523 6.932 15.616c7.112 4.094 18.131 11.7 18.131 11.7l-41.918 1.413 1.195-28.833 15.66.104z" fill="#F8AE9D"/><path fill-rule="evenodd" clip-rule="evenodd" d="m251.152 527.405-.682 18.694h9.736l.668-2.408s3.665-.15 5.783.89c2.239 1.101 2.54 1.634 2.54 1.634l30.883.065s1.524-6.042-7.89-10.412c-9.414-4.372-16.269-10.575-17.571-11.21-1.311-.64-3.957-1.001-5.82.502-1.864 1.502-3.338 5.452-7.56 5.576-5.435.16-8.557-6.492-10.087-3.331zm-12.038-200.761s11.441 97.077 11.797 103.825c.356 6.749-3.675 18.395-3.596 31.018.078 12.623 1.472 57.112 1.472 57.112l25.237.411s10.607-80.394 10.722-92.45c.113-12.056 1.086-98.756 1.086-98.756l-46.718-1.16z" fill="#30327E"/><path fill-rule="evenodd" clip-rule="evenodd" d="m208.246 512.682-4.918 29.869 18.131-.091.574-30.246-13.787.468z" fill="#F8AE9D"/><path fill-rule="evenodd" clip-rule="evenodd" d="M205.369 525.803a2.745 2.745 0 0 0-2.161 2.593l-.178 5.396c-2.595 2.885-3.805 11.284-3.909 12.034-.005.04-.008.074-.005.114.263 4.095 27.141 4.021 29.281.133a.614.614 0 0 0 .052-.403c-.233-1.44-1.708-9.879-4.6-12.147l-.02-5.337a2.747 2.747 0 0 0-2.033-2.642l-3.624-.975c-2.651-3.875-6.263-3.738-9.358.485l-3.445.749zm11.779-198.245s-8.08 66.233-7.97 78.916c.11 12.684 2.486 18.255-.896 27.354-3.384 9.099-6.269 81.725-6.269 81.725l25.017 2.083s15.982-77.714 17.72-88.488c1.738-10.775 23.218-102.504 23.218-102.504l-50.82.914z" fill="#30327E"/><path fill-rule="evenodd" clip-rule="evenodd" d="M341.894 208.471s-2.089-11.641-1.338-13.998c.642-2.037 6.705-4.975 6.705-4.975s10.546-16.659 12.854-14.963c1.877 1.376-5.492 13.658-5.492 13.658s6.72 7.05 6.626 10.201c-.094 3.152-10.968 13.018-10.968 13.018l-8.387-2.941zm-108.389 2.735s6.946-1.631 7.187-13.011c.241-11.381.072-15.265.072-15.265l16.465-.276s.167 12.683.17 17.271c.006 9.987 7.423 12.685 7.423 12.685s-.616 10.921-14.479 11.7c-10.823.61-16.838-13.104-16.838-13.104z" fill="#F8AE9D"/><path fill-rule="evenodd" clip-rule="evenodd" d="M239.251 177.177c-6.825-.264-5.711 9.727 1.378 9.713 0 0 7.619 15.32 19.581 15.36 5.762.019 7.644-5.113 9.371-8.716 1.727-3.603 2.995-8.993 3.1-12.293.114-3.518.128-15.077.128-15.077l-33.823-.015.265 11.028z" fill="#F8AE9D"/><path fill-rule="evenodd" clip-rule="evenodd" d="M265.082 211.933s17.738 5.537 22.013 12.152c13.77 12.097 30.992 28.71 30.992 28.71s16.403-41.167 21.765-45.861c3.67-3.211 10.98.759 12.342 4.84 1.749 5.242-9.485 35.987-14.791 50.508-1.028 2.814-1.833 5.018-2.278 6.31-3.236 9.386-11.108 14.77-20.688 8.804-3.861-2.405-15.353-10.285-25.157-17.429-.153 7.505-.411 15.413-.657 22.924v.001c-.596 18.247-1.115 34.149.133 36.215 6.184 10.242-2.038 17.272-29.259 19.855-27.22 2.583-51.369.468-46.987-13.199.914-2.849.902-8.979.447-16.942-2.65-.142-5.326-.317-7.995-.527-11.36-.896-19.761-5.777-20.933-18.454-.821-8.878 16.092-50.555 22.434-64.26 1.484-3.206 3.778-5.202 6.376-6.198.605-.675 1.287-1.149 2.052-1.401 4.659-1.536 21.362-8.553 21.362-8.553l19.87 13 8.959-10.495zm-53.966 73.364-.045.115.056.007-.011-.122z" fill="#666af6"/><path fill-rule="evenodd" clip-rule="evenodd" d="M255.205 296.297s6.06-1.219 8.541-3.166c2.48-1.947 9.991-3.324 9.991-3.324l-2.403 5.061s18.41-1.728 18.846.088c.436 1.816-4.889 3.79-4.889 3.79s-2.625 4.905-5.167 7.748c-2.406 2.691-14.355 2.37-18.544.691-3.62-1.45-7.556-.725-7.556-.725l1.181-10.163z" fill="#F8AE9D"/><path d="M241.108 166.62c.997 1.305 2.755 1.593 4.204 1.851 1.947.347 2.91 1.069 3.921 3.009.64 1.239 1.28 2.596 2.425 3.267.933.549.905-.84 1.043-1.914a2.025 2.025 0 0 1 .058-.298c.223-.858 1.134-.714 1.398.132.243.767.762 1.416 1.422 1.778.108.059.222.11.337.088.155-.022.276-.169.377-.302.21-.276.419-.626.635-.997.712-1.226 2.072-.795 2.868.377.499.731 1.092 1.483 1.907 1.652.262.059.593.015.714-.243.155-.317-.088-.634-.047-.959.033-.302.161-.435.303-.693.552-.996 1.831-1.032 2.61-.202a28.87 28.87 0 0 0 1.695 1.662c.249.222.613.443.862.222.135-.118.169-.318.195-.509.142-.937.277-1.874.418-2.81.081-.524.357-1.21.829-1.077.229.066.364.31.492.531.155.28 2.923 3.474 2.977 3.23.432-1.814 1.314-3.466 1.745-5.28 2.789-11.675-9.586-21.064-19.038-21.115-2.102-.015-4.022.02-6.064.514-2.176.531-4.473 1.374-6.447 2.561-2.769 1.659-4.864 4.676-4.325 8.275" fill="#30327E"/><path d="M248.794 162.846c1.333 1.524 1.686 3.669 1.81 5.695.183 3.056-.066 6.23-1.464 8.942-.398.772-.692 4.593-1.306 4.382-.196-.066-.164-3.029-.68-4.626-.797-2.475-4.469-3.418-6.122-1.854-2.639 2.488-1.091 5.51-.215 7.391.522 1.135 1.352 2.409 1.496 3.61.176 1.537.228 7.14-.765 8.447-.829 1.095-1.711-4.197-2.463-5.24-5.56-7.767-10.891-27.545-1.398-31.835 1.444-.653 5.9-.99 7.252-.158" fill="#30327E"/><path fill-rule="evenodd" clip-rule="evenodd" d="M703.576 454.917c15.817-35.907 30.187-72.783 43.341-110.474-30.301 28.659-53.864 63.573-50.509 110.474h7.168z" fill="#666af6"/><path fill-rule="evenodd" clip-rule="evenodd" d="M695.146 458.666c-3.744-61.225-2.157-118.085 29.22-150.554-4.328 67.222-12.424 114.576-22.678 150.554h-6.542z" fill="#666af6"/><path fill-rule="evenodd" clip-rule="evenodd" d="M693.706 452.29c-17.53-42.784-35.145-55.048-49.706-98.965 47.654 24.796 50.641 45.272 59.995 98.965h-10.289z" fill="#666af6"/><path fill-rule="evenodd" clip-rule="evenodd" d="m684.271 452.291-31.448-42.785c15.188 4.345 40.575 11.38 40.575 42.785h-9.127zm29.414-.001h10.491c6.667-13.968 16.062-23.585 38.791-11.928-14.899-22.772-45.468-29.664-49.282 11.928z" fill="#666af6"/><path fill-rule="evenodd" clip-rule="evenodd" d="M704.034 452.29h8.725c16.011-22.977 22.895-32.988 39.465-52.61-21.828 8.311-44.234 19.622-48.19 52.61z" fill="#666af6"/><path d="M681.971 452.427h44.268c.581 0 1.053.472 1.053 1.053 0 5.915 2.101 11.51 5.281 16.286 7.723 11.598 11.51 23.078 11.51 34.469 0 13.193-4.602 26.486-13.979 39.91-.196.282-.519.45-.863.45h-50.272c-.344 0-.666-.168-.863-.45-9.377-13.424-13.979-26.717-13.979-39.91 0-13.326 5.185-26.785 15.802-40.409a4.638 4.638 0 0 0 .989-2.863v-7.483c0-.581.472-1.053 1.053-1.053z" fill="#fff" stroke="#E1E4E5" stroke-width="4"/></svg>