<svg width="900" height="600" viewBox="0 0 900 600" fill="none" xmlns="http://www.w3.org/2000/svg"><path fill="transparent" d="M0 0h900v600H0z"/><path d="M686.463 357.638c3.357 61.869-117.602 187.673-266.693 141.109-69.341-21.659-63.467-57.607-116.194-104.984-31.428-28.237-76.584-49.589-89.143-90.634-10.85-35.428-4.196-73.507 14.614-98.276 42.303-55.702 127.704-93.845 211.852-6.081 84.147 87.764 236.886-.7 245.564 158.866z" fill="url(#a)"/><path d="M644.149 202.253c-11.57 20.649-36.91 23.486-77.505 19.562-30.531-2.957-58.373-5.245-88.906-21.892-21.371-11.643-38.288-27.397-50.635-42.697-13.38-16.575-32.055-35.492-22.9-54.286 12.581-25.816 85.338-47.56 155.987-12.002 77.609 39.071 95.277 91.133 83.959 111.315z" fill="url(#b)"/><path opacity=".76" fill-rule="evenodd" clip-rule="evenodd" d="M221.126 222.09c0-71.295 57.796-129.09 129.09-129.09 71.294 0 129.09 57.795 129.09 129.09 0 71.294-57.796 129.089-129.09 129.089-71.294 0-129.09-57.795-129.09-129.089zm250.983.17c0-53.403-43.291-96.694-96.693-96.694-53.403 0-96.694 43.291-96.694 96.694 0 53.402 43.291 96.693 96.694 96.693 53.402 0 96.693-43.291 96.693-96.693z" fill="url(#c)"/><path opacity=".76" d="M387.674 268.923c8.236 0 14.913 6.676 14.913 14.913 0 8.236-6.677 14.912-14.913 14.912s-14.913-6.676-14.913-14.912c0-8.237 6.677-14.913 14.913-14.913z" fill="url(#d)"/><circle r="27.421" transform="matrix(-1 0 0 1 702.42 223.421)" fill="url(#e)"/><circle r="9" transform="matrix(-1 0 0 1 677 161)" fill="url(#f)"/><circle r="13.5" transform="matrix(-1 0 0 1 288.5 443.5)" fill="url(#g)"/><path fill-rule="evenodd" clip-rule="evenodd" d="M615.398 417.172a4.313 4.313 0 0 0-4.88 3.728L595.38 540.369a4.234 4.234 0 0 0 8.401 1.07l15.292-119.449a4.313 4.313 0 0 0-3.675-4.818z" fill="#fff" stroke="#E1E4E5" stroke-width="4" stroke-linecap="round" stroke-linejoin="round"/><path fill-rule="evenodd" clip-rule="evenodd" d="M613.666 417.172a4.313 4.313 0 0 1 4.88 3.728l15.138 119.469a4.234 4.234 0 0 1-8.401 1.07L609.991 421.99a4.313 4.313 0 0 1 3.675-4.818zm-45.701 0a4.312 4.312 0 0 0-4.879 3.728l-15.138 119.469a4.233 4.233 0 0 0 4.257 4.766 4.231 4.231 0 0 0 4.143-3.696l15.293-119.449a4.314 4.314 0 0 0-3.676-4.818zm95.393 0a4.313 4.313 0 0 1 4.88 3.728l15.138 119.469a4.234 4.234 0 0 1-8.401 1.07L659.683 421.99a4.313 4.313 0 0 1 3.675-4.818z" fill="#fff" stroke="#E1E4E5" stroke-width="4" stroke-linecap="round" stroke-linejoin="round"/><path fill-rule="evenodd" clip-rule="evenodd" d="M557.387 436.783c-7.422 0-13.439-6.017-13.439-13.439 0-7.423 6.017-13.44 13.439-13.44h29.29c22.046 0 40.474-16.773 42.54-38.723l4.852-51.527c1.585-16.827 15.712-29.686 32.614-29.686 19.081 0 34.124 16.244 32.661 35.27l-5.029 65.38c-2.004 26.049-23.726 46.165-49.853 46.165h-87.075z" fill="#fff" stroke="#E1E4E5" stroke-width="4" stroke-linecap="round" stroke-linejoin="round"/><path fill-rule="evenodd" clip-rule="evenodd" d="M543.948 423.021c.001.116.095.21.21.21h86.762c26.123 0 47.843-20.109 49.852-46.155l5.018-65.058a33.14 33.14 0 0 0 .067-4.016c-.429-9.649-8.443-17.613-18.093-18.007a34.138 34.138 0 0 0-1.361-.027c-16.857 0-30.948 12.823-32.533 29.606l-4.851 51.367c-2.067 21.894-20.45 38.622-42.441 38.622h-29.225c-7.403 0-13.405 6.002-13.405 13.405v.053z" fill="#fff"/><path d="m680.772 377.076 1.994.154-1.994-.154zm5.018-65.058-1.994-.154 1.994.154zm-51.92 7.556-1.991-.189 1.991.189zm-4.851 51.367-1.991-.188 1.991.188zm56.838-62.939-1.998.089 1.998-.089zM543.948 423.021l-2 .008 2-.008zm86.972-1.79h-86.762v4h86.762v-4zm47.858-44.309c-1.929 25.004-22.78 44.309-47.858 44.309v4c27.167 0 49.756-20.914 51.846-48.001l-3.988-.308zm5.018-65.058-5.018 65.058 3.988.308 5.018-65.059-3.988-.307zm.063-3.773a31.17 31.17 0 0 1-.063 3.773l3.988.307a35.09 35.09 0 0 0 .071-4.258l-3.996.178zm-17.456-16.123c.429 0 .855.008 1.279.026l.163-3.997a36.313 36.313 0 0 0-1.442-.029v4zm-30.542 27.794c1.488-15.756 14.717-27.794 30.542-27.794v-4c-17.889 0-32.842 13.608-34.524 31.417l3.982.377zm-4.851 51.367 4.851-51.367-3.982-.377-4.851 51.368 3.982.376zm-44.432 40.434c23.023 0 42.268-17.513 44.432-40.434l-3.982-.376c-1.97 20.867-19.49 36.81-40.45 36.81v4zm-29.225 0h29.225v-4h-29.225v4zm-11.405 11.405c0-6.299 5.106-11.405 11.405-11.405v-4c-8.508 0-15.405 6.897-15.405 15.405h4zm0 .046v-.046h-4v.061l4-.015zm141.907-115.101c-.475-10.689-9.324-19.48-20.01-19.916l-.163 3.997c8.616.351 15.794 7.489 16.177 16.097l3.996-.178zM544.158 421.231a1.79 1.79 0 0 1 1.79 1.783l-4 .015a2.21 2.21 0 0 0 2.21 2.202v-4z" fill="#E1E4E5"/><path fill-rule="evenodd" clip-rule="evenodd" d="M534.716 499.383s7.487 15.12 1.35 19.885c-6.147 4.765-22.381 13.696-22.381 13.696l43.011-2.703-9.561-32.976-12.419 2.098z" fill="#F8AE9D"/><path fill-rule="evenodd" clip-rule="evenodd" d="M552.436 513.065c-1.353.646.872 6.721-3.89 6.294-4.761-.426-7.75-6.705-11.261-6.297-3.512.406-5.741 6.73-12.426 11.135-6.684 4.405-16.595 9.659-15.931 14.088.664 4.429 16.26 5.615 24.162 4.148 7.901-1.465 11.589-4.641 16.715-4.388 5.126.253 8.347-.374 9.955-3.665 1.606-3.292-5.762-22.061-7.324-21.315zm47.073-146.945c-13.021.582-85.494 16.611-98.661 19.335-13.167 2.723-24.299 17.459-14.259 34.522 11.277 19.155 40.375 73.553 47.439 85.816 3.497 6.069 21.137 2.666 16.993-7.521-7.724-18.991-11.311-66.698-31.005-84.092 0 0 66.229 11.526 94.837-1.677 20.792-9.598 16.088-47.788-15.344-46.383z" fill="#31446C"/><path fill-rule="evenodd" clip-rule="evenodd" d="M508.672 284.84s.147-7.741-3.559-13.278c-3.706-5.537-3.853-11.419-6.658-11.226-2.805.192-.027 13.863-.027 13.863s-3.559-1.36-6.116-3.079c-2.557-1.72-10.309-10.198-12.121-8.696-3.071 2.56 1.876 17 4.571 19.887 2.703 2.887 16.046 10.956 16.046 10.956l39.293 39.585 5.875-21.014-37.304-26.998z" fill="#F8AE9D"/><path fill-rule="evenodd" clip-rule="evenodd" d="M587.267 281.345c-6.057 14.049-17.148 39.857-21.72 47.557-5.73 9.643-14.766 13.892-25.345 6.737-2.213-1.497-8.57-6.733-8.57-6.733.941-9.164 4.365-16.824 10.267-22.983l4.008 3.316s11.368-29.14 20.512-46.02c7.92-14.605 30.068-3.232 20.848 18.126zm26.179-54.533v12.431l9.129-7.35s2.806-11.911 5.088-20.757c1.431-5.547 4.918-24.321-9.119-23.442-11.498-20.269-44.985-7.724-45.252 17.039-.321 29.784-.059 41.38-.059 41.38 18.936 1.087 29.595-1.651 40.213-19.301z" fill="#31446C"/><path fill-rule="evenodd" clip-rule="evenodd" d="M622.771 250.481s-8.492-1.994-8.787-15.909c-.294-13.915-.087-18.665-.087-18.665l-18.706-.337s-.204 15.508-.207 21.117c-.008 13.639-10.038 14.757-10.038 14.757s1.715 11.252 18.665 12.206c13.234.745 19.16-13.169 19.16-13.169z" fill="#F8AE9D"/><path fill-rule="evenodd" clip-rule="evenodd" d="M618.258 208.959c8.344-.323 6.983 11.893-1.685 11.876 0 0-5.035 17.354-22.515 17.354-14.196 0-15.12-20.226-15.248-24.261-.139-4.302-.157-18.435-.157-18.435l39.93-.019-.325 13.485z" fill="#F8AE9D"/><path fill-rule="evenodd" clip-rule="evenodd" d="M618.903 208.879c-3.458.57-3.038 2.86-3.979 2.66-4.775-1.016-24.103.324-26.591-10.305-3.097 6.64-3.854 8.273-10.673 10.055v-19.458l43.128-4.137s-.669 20.983-1.885 21.185z" fill="#31446C"/><path fill-rule="evenodd" clip-rule="evenodd" d="M620.874 249.057c-10.657 6.528-22.978 8.921-34.447 1.832-18.717 36.906-23.382 80.94-18.879 129.608 27.292 10.806 50.231 8.681 69.76-3.67l-16.434-127.77z" fill="#666AF6"/><path fill-rule="evenodd" clip-rule="evenodd" d="M488.063 499.99s.226 17.796-14.438 24.45c-14.655 6.653-25.096 6.252-23.767 11.396 1.329 5.143 39.473 4.935 43.036.913 3.036-3.422 9.638-35.287 11.456-32.851l-16.287-3.908z" fill="#F8AE9D"/><path fill-rule="evenodd" clip-rule="evenodd" d="M498.713 525.122c-2.248-1.617-4.137 7.708-10.242 5.115-6.104-2.592-1.29-11.163-5.132-12.744-3.841-1.581-11.259 6.918-21.112 8.984-9.852 2.064-17.851 3.872-20.125 7.707-1.958 3.296 0 4.349 0 4.349s9.485 4.736 15.379 5.779c8.561 1.514 33.306 2.523 36.017-.238 1.665-1.694 6.338-18.142 5.215-18.952zm141.595-164.503s18.93 39.98-7.673 53.708c-25.728 13.276-102.749-2.426-102.749-2.426s1.376 11.08 0 20.963c-3.595 25.811-20.69 68.814-24.307 74.217-5.002 7.473-20.238 1.837-20.525-4.385-.287-6.221 11.486-85.685 13.276-100.838 1.781-15.154 7.404-17.355 23.828-21.497 3.773-.952 48.392-12.041 52.48-11.717 35.121 2.777 65.67-8.025 65.67-8.025z" fill="#31446C"/><path fill-rule="evenodd" clip-rule="evenodd" d="M620.408 249.087c-17.65 57.819-28.235 139.791 26.89 125.53-29.283-53.914 10.525-78.18 1.502-106.044-3.085-9.526-28.161-20.234-28.392-19.486zm-33.047 1.397c-6.735 16.894-9.973 30.149-12.994 54.946-2.519 20.653-1.258 63.271-1.258 63.271l-8.324 1.636s-5.95-65.842-3.961-74.32c3.339-14.226 5.601-22.538 10.009-35.543 2.428-7.138 16.528-9.99 16.528-9.99z" fill="#31446C"/><path fill-rule="evenodd" clip-rule="evenodd" d="M616.702 314.726s-10.868-10.881-14.631-12.144c-3.764-1.263-24.38-2.78-24.241.074.158 3.057 13.425 2.881 14.651 4.385 1.227 1.503 2.933 13.209 7.57 14.364 4.628 1.154 14.222 4.57 14.222 4.57l42.703 22.065-4.55-22.063-35.724-11.251z" fill="#F8AE9D"/><path fill-rule="evenodd" clip-rule="evenodd" d="M649.411 268.653c12.953 18.281 24.013 46.129 28.258 56.985 4.245 10.857-.037 27.233-18.704 24.018-2.223-.383-5.838-1.789-5.838-1.789-6.863-9.409-8.067-17.487-5.506-24.679l2.414 1.019s-18.552-32.885-23.083-41.701c-7.567-14.722 11.049-29.961 22.459-13.853z" fill="#31446C"/><path d="M595.759 543.286a6.83 6.83 0 0 1-6.667-5.344l-36.817-165.148c-.952-4.271 2.297-8.324 6.672-8.324a6.835 6.835 0 0 1 6.672 5.349l36.807 165.151c.951 4.267-2.295 8.316-6.667 8.316zm-285.654 0a6.83 6.83 0 0 0 6.666-5.344l36.82-165.156c.951-4.266-2.295-8.316-6.667-8.316a6.83 6.83 0 0 0-6.666 5.344l-36.82 165.156c-.951 4.267 2.295 8.316 6.667 8.316z" fill="#fff" stroke="#E1E4E5" stroke-width="4" stroke-linecap="round" stroke-linejoin="round"/><path fill-rule="evenodd" clip-rule="evenodd" d="M309.125 364.775v-6.211c0-3.565 1.821-6.454 4.059-6.472h282.034c2.25 0 4.059 2.907 4.059 6.472v6.211c0 3.582-1.821 6.472-4.059 6.472h-8.961a6.784 6.784 0 0 0-6.784 6.784 2.053 2.053 0 0 1-2.063 2.048H323.545a2.05 2.05 0 0 1-2.051-2.048 6.784 6.784 0 0 0-6.785-6.784h-1.525c-2.25 0-4.059-2.89-4.059-6.472z" fill="#fff"/><path d="m313.184 352.092-.016-2h.016v2zm-2.059 6.472v6.211h-4v-6.211h4zm2.074-4.472c-.193.002-.666.136-1.19.97-.506.805-.884 2.038-.884 3.502h-4c0-2.101.533-4.095 1.497-5.63.946-1.507 2.502-2.826 4.546-2.842l.031 4zm282.019 0H313.184v-4h282.034v4zm2.059 4.472c0-1.467-.377-2.705-.882-3.512-.521-.834-.988-.96-1.177-.96v-4c2.061 0 3.623 1.328 4.568 2.839.962 1.537 1.491 3.535 1.491 5.633h-4zm0 6.211v-6.211h4v6.211h-4zm-2.059 4.472c.185 0 .653-.125 1.175-.957.505-.804.884-2.04.884-3.515h4c0 2.107-.532 4.107-1.497 5.643-.947 1.509-2.509 2.829-4.562 2.829v-4zm-8.961 0h8.961v4h-8.961v-4zm-8.847 8.832a.07.07 0 0 0 .031-.005.072.072 0 0 0 .019-.013.04.04 0 0 0 .01-.014c.001-.002.003-.006.003-.016h4c0 2.254-1.834 4.048-4.063 4.048v-4zm-253.865 0H577.41v4H323.545v-4zm-.051-.048c0 .01.001.014.003.017.001.004.005.01.011.016a.047.047 0 0 0 .037.015v4a4.05 4.05 0 0 1-4.051-4.048h4zm-10.31-8.784h1.525v4h-1.525v-4zm-2.059-4.472c0 1.477.377 2.714.881 3.517.519.828.985.955 1.178.955v4c-2.057 0-3.62-1.318-4.568-2.831-.963-1.537-1.491-3.536-1.491-5.641h4zm8.369 13.256a4.784 4.784 0 0 0-4.785-4.784v-4a8.784 8.784 0 0 1 8.785 8.784h-4zm266.763-4.784a4.784 4.784 0 0 0-4.784 4.784h-4a8.784 8.784 0 0 1 8.784-8.784v4z" fill="#E1E4E5"/><rect x="296.611" y="51" width="196.507" height="239.083" rx="20" fill="#fff" stroke="#E1E4E5" stroke-width="4" stroke-linecap="round" stroke-linejoin="round"/><mask id="h" mask-type="alpha" maskUnits="userSpaceOnUse" x="294" y="49" width="202" height="244"><path fill="#fff" stroke="#fff" stroke-width="4" stroke-linecap="round" stroke-linejoin="round" d="M296.611 51h196.507v239.083H296.611z"/></mask><g mask="url(#h)"><rect x="342" y="201" width="106" height="14" rx="7" fill="#fff" stroke="#E1E4E5" stroke-width="4" stroke-linecap="round" stroke-linejoin="round"/><rect x="342" y="171" width="106" height="16" rx="8" fill="#fff" stroke="#E1E4E5" stroke-width="4" stroke-linecap="round" stroke-linejoin="round"/><rect x="360" y="228" width="70" height="16" rx="8" fill="#fff" stroke="#E1E4E5" stroke-width="4" stroke-linecap="round" stroke-linejoin="round"/><path fill-rule="evenodd" clip-rule="evenodd" d="M395 73c20.435 0 37 16.566 37 37 0 20.435-16.565 37-37 37s-37-16.565-37-37c0-20.434 16.565-37 37-37zm.5 20c-9.665 0-17.5 7.835-17.5 17.5s7.835 17.5 17.5 17.5 17.5-7.835 17.5-17.5S405.165 93 395.5 93z" fill="#666AF6"/></g><path fill-rule="evenodd" clip-rule="evenodd" d="M212.054 494.802h2.413c.583 0 1.053.475 1.053 1.053v2.414c0 .583-.474 1.053-1.053 1.053h-2.413a1.058 1.058 0 0 1-1.054-1.053v-2.414a1.051 1.051 0 0 1 1.054-1.053zm8.367 0h2.413c.578 0 1.053.475 1.053 1.053v2.414c0 .583-.475 1.053-1.053 1.053h-2.413a1.058 1.058 0 0 1-1.054-1.053v-2.414c0-.578.475-1.053 1.054-1.053zm8.373 0h2.413c.578 0 1.053.475 1.053 1.053v2.414c0 .583-.475 1.053-1.053 1.053h-2.413a1.058 1.058 0 0 1-1.054-1.053v-2.414a1.051 1.051 0 0 1 1.054-1.053zm8.367 0h2.413c.579 0 1.053.475 1.053 1.053v2.414c0 .583-.474 1.053-1.053 1.053h-2.413a1.059 1.059 0 0 1-1.059-1.053v-2.414a1.065 1.065 0 0 1 1.059-1.053z" fill="#E1E4E5"/><path fill-rule="evenodd" clip-rule="evenodd" d="M349.026 488h6.934a3.042 3.042 0 0 1 3.04 3.03v6.94a3.033 3.033 0 0 1-3.04 3.03h-6.934a3.04 3.04 0 0 1-3.026-3.03v-6.94a3.04 3.04 0 0 1 3.026-3.03z" fill="url(#i)"/><path fill-rule="evenodd" clip-rule="evenodd" d="M220.728 503.926h2.413c.579 0 1.053.475 1.053 1.053v2.419c0 .578-.474 1.053-1.053 1.053h-2.413a1.055 1.055 0 0 1-1.054-1.053v-2.414a1.052 1.052 0 0 1 1.054-1.058zm8.367 0h2.413c.579 0 1.053.475 1.053 1.053v2.419c0 .578-.474 1.053-1.053 1.053h-2.413a1.058 1.058 0 0 1-1.054-1.053v-2.414a1.052 1.052 0 0 1 1.054-1.058zm8.367 0h2.414c.583 0 1.058.475 1.058 1.053v2.419c0 .578-.475 1.053-1.058 1.053h-2.414a1.058 1.058 0 0 1-1.053-1.053v-2.414c0-.583.475-1.058 1.053-1.058zM228.794 485h2.413c.578 0 1.053.475 1.053 1.053v2.414c0 .583-.475 1.053-1.053 1.053h-2.413a1.058 1.058 0 0 1-1.054-1.053v-2.414a1.051 1.051 0 0 1 1.054-1.053zm8.367 0h2.413c.579 0 1.053.475 1.053 1.053v2.414c0 .583-.474 1.053-1.053 1.053h-2.413a1.059 1.059 0 0 1-1.059-1.053v-2.414a1.065 1.065 0 0 1 1.059-1.053zm-75.664-156.071h3.429c.83 0 1.497.675 1.497 1.497v3.429c0 .83-.674 1.497-1.497 1.497h-3.429a1.503 1.503 0 0 1-1.497-1.497v-3.429a1.494 1.494 0 0 1 1.497-1.497zm11.89 0h3.429c.823 0 1.497.675 1.497 1.497v3.429c0 .83-.674 1.497-1.497 1.497h-3.429a1.503 1.503 0 0 1-1.497-1.497v-3.429c0-.822.675-1.497 1.497-1.497zm11.898 0h3.43c.822 0 1.497.675 1.497 1.497v3.429c0 .83-.675 1.497-1.497 1.497h-3.43a1.503 1.503 0 0 1-1.497-1.497v-3.429a1.494 1.494 0 0 1 1.497-1.497zm11.89 0h3.43c.822 0 1.497.675 1.497 1.497v3.429c0 .83-.675 1.497-1.497 1.497h-3.43a1.503 1.503 0 0 1-1.503-1.497v-3.429a1.513 1.513 0 0 1 1.503-1.497zm11.892 0h3.429c.829 0 1.504.675 1.504 1.497v3.429a1.5 1.5 0 0 1-1.504 1.497h-3.429a1.502 1.502 0 0 1-1.497-1.497v-3.429c0-.822.674-1.497 1.497-1.497zm-35.244 12.966h3.43c.822 0 1.497.674 1.497 1.497v3.436c0 .822-.675 1.497-1.497 1.497h-3.43a1.498 1.498 0 0 1-1.496-1.497v-3.429a1.494 1.494 0 0 1 1.496-1.504zm11.89 0h3.43c.822 0 1.497.674 1.497 1.497v3.436c0 .822-.675 1.497-1.497 1.497h-3.43a1.503 1.503 0 0 1-1.497-1.497v-3.429a1.495 1.495 0 0 1 1.497-1.504zm11.891 0h3.43c.829 0 1.504.674 1.504 1.497v3.436c0 .822-.675 1.497-1.504 1.497h-3.43a1.503 1.503 0 0 1-1.497-1.497v-3.429c0-.83.675-1.504 1.497-1.504zM185.285 315h3.43c.822 0 1.497.675 1.497 1.497v3.429c0 .83-.675 1.497-1.497 1.497h-3.43a1.503 1.503 0 0 1-1.497-1.497v-3.429a1.494 1.494 0 0 1 1.497-1.497zm11.89 0h3.43c.822 0 1.497.675 1.497 1.497v3.429c0 .83-.675 1.497-1.497 1.497h-3.43a1.503 1.503 0 0 1-1.503-1.497v-3.429a1.513 1.513 0 0 1 1.503-1.497zm505.989 131.834h2.668c.645 0 1.164.524 1.164 1.164v2.667c0 .645-.525 1.164-1.164 1.164h-2.668a1.168 1.168 0 0 1-1.164-1.164v-2.667a1.161 1.161 0 0 1 1.164-1.164zm9.248 0h2.667c.64 0 1.165.524 1.165 1.164v2.667c0 .645-.525 1.164-1.165 1.164h-2.667a1.168 1.168 0 0 1-1.164-1.164v-2.667c0-.64.525-1.164 1.164-1.164zm9.254 0h2.668c.639 0 1.164.524 1.164 1.164v2.667c0 .645-.525 1.164-1.164 1.164h-2.668a1.168 1.168 0 0 1-1.164-1.164v-2.667a1.161 1.161 0 0 1 1.164-1.164zm9.248 0h2.668c.639 0 1.164.524 1.164 1.164v2.667c0 .645-.525 1.164-1.164 1.164h-2.668a1.169 1.169 0 0 1-1.169-1.164v-2.667c.005-.64.53-1.164 1.169-1.164zm9.249 0h2.667c.645 0 1.17.524 1.17 1.164v2.667c0 .645-.525 1.164-1.17 1.164h-2.667c-.64 0-1.164-.524-1.164-1.164v-2.667c0-.64.524-1.164 1.164-1.164zm-27.411 10.084h2.667c.64 0 1.164.525 1.164 1.164v2.673c0 .64-.524 1.165-1.164 1.165h-2.667a1.166 1.166 0 0 1-1.165-1.165v-2.667a1.164 1.164 0 0 1 1.165-1.17zm9.247 0h2.668c.639 0 1.164.525 1.164 1.164v2.673a1.17 1.17 0 0 1-1.164 1.165h-2.668a1.17 1.17 0 0 1-1.164-1.165v-2.667a1.163 1.163 0 0 1 1.164-1.17zm9.249 0h2.667c.645 0 1.17.525 1.17 1.164v2.673a1.17 1.17 0 0 1-1.17 1.165h-2.667a1.17 1.17 0 0 1-1.165-1.165v-2.667c0-.645.525-1.17 1.165-1.17zM721.666 436h2.668c.639 0 1.164.525 1.164 1.164v2.668c0 .645-.525 1.164-1.164 1.164h-2.668a1.169 1.169 0 0 1-1.164-1.164v-2.668a1.162 1.162 0 0 1 1.164-1.164zm9.248 0h2.668c.639 0 1.164.525 1.164 1.164v2.668c0 .645-.525 1.164-1.164 1.164h-2.668a1.17 1.17 0 0 1-1.169-1.164v-2.668a1.177 1.177 0 0 1 1.169-1.164z" fill="#E1E4E5"/><path d="M228.447 110.556c-.728 2.909.237 5.933 1.829 8.473 1.125 1.795 2.697-.187 4.99-.505 3.547-.496 5.793-4.251 6.56-13.398.356-6.68.188-10.014-.184-10.597-1.325-2.088-4.733-2.787-7.419-2.585" fill="#31446C"/><path fill-rule="evenodd" clip-rule="evenodd" d="M234.885 508.12s-.216 13.737 8.263 18.616c8.478 4.88 21.613 13.946 21.613 13.946l-49.968 1.685 1.424-34.37 18.668.123z" fill="#F8AE9D"/><path fill-rule="evenodd" clip-rule="evenodd" d="m213.05 523.257-.813 22.285h11.606l.796-2.871s4.369-.178 6.894 1.061c2.669 1.312 3.028 1.948 3.028 1.948l36.814.077s1.817-7.202-9.405-12.412c-11.222-5.211-19.393-12.606-20.946-13.363-1.563-.762-4.717-1.193-6.938.599-2.222 1.79-3.979 6.5-9.012 6.647-6.478.191-10.2-7.739-12.024-3.971zM198.7 283.935s13.638 115.724 14.062 123.768c.425 8.045-4.38 21.928-4.287 36.975.094 15.048 1.755 68.082 1.755 68.082l30.085.49s12.644-95.836 12.781-110.207c.135-14.371 1.295-117.724 1.295-117.724l-55.691-1.384z" fill="#31446C"/><path fill-rule="evenodd" clip-rule="evenodd" d="m161.903 505.706-5.863 35.606 21.614-.108.684-36.056-16.435.558z" fill="#F8AE9D"/><path fill-rule="evenodd" clip-rule="evenodd" d="M158.072 521.434a2.748 2.748 0 0 0-2.162 2.594l-.225 6.843c-3.106 3.454-4.548 13.534-4.661 14.356a.618.618 0 0 0-.006.114c.264 4.905 32.522 4.808 34.926.133a.634.634 0 0 0 .049-.401c-.254-1.583-2.013-11.795-5.491-14.523l-.025-6.764a2.744 2.744 0 0 0-2.033-2.642l-4.709-1.267c-3.159-4.62-7.465-4.457-11.155.578l-4.508.979zm14.442-236.409s-9.631 78.955-9.501 94.074c.131 15.121 2.965 21.761-1.068 32.607-4.033 10.847-7.472 97.422-7.472 97.422l29.822 2.484s19.051-92.64 21.123-105.484c2.072-12.844 27.677-122.193 27.677-122.193l-60.581 1.09z" fill="#31446C"/><path fill-rule="evenodd" clip-rule="evenodd" d="M321.221 143.065s-2.49-13.876-1.595-16.686c.765-2.428 7.993-5.93 7.993-5.93s12.571-19.859 15.322-17.837c2.238 1.639-6.547 16.28-6.547 16.28s8.011 8.405 7.899 12.161c-.111 3.758-13.075 15.519-13.075 15.519l-9.997-3.507zm-129.207 3.26s8.28-1.943 8.567-15.51c.287-13.566.085-18.196.085-18.196l19.629-.33s.198 15.12.201 20.588c.008 11.906 8.85 15.123 8.85 15.123s-.735 13.018-17.26 13.947c-12.902.727-20.072-15.622-20.072-15.622z" fill="#F8AE9D"/><path fill-rule="evenodd" clip-rule="evenodd" d="M198.863 105.761c-8.135-.315-6.808 11.595 1.643 11.579 0 0 9.083 18.262 23.342 18.31 6.869.022 9.112-6.096 11.171-10.391 2.059-4.295 3.57-10.72 3.696-14.653.135-4.194.152-17.974.152-17.974l-40.32-.018.316 13.147z" fill="#F8AE9D"/><path fill-rule="evenodd" clip-rule="evenodd" d="M229.655 147.192s21.146 6.601 26.242 14.486c16.415 14.421 36.945 34.225 36.945 34.225s19.553-49.075 25.945-54.67c4.374-3.828 13.088.905 14.712 5.77 2.086 6.249-11.306 42.899-17.631 60.209-1.226 3.354-2.186 5.981-2.717 7.521-3.857 11.19-13.241 17.608-24.66 10.495-4.603-2.866-18.302-12.26-29.989-20.776-.183 8.947-.491 18.374-.783 27.328-.711 21.752-1.33 40.708.158 43.171 7.371 12.209-2.43 20.59-34.879 23.669-32.448 3.079-61.236.558-56.012-15.735 1.089-3.395 1.075-10.702.532-20.196a378.53 378.53 0 0 1-9.529-.628c-13.543-1.067-23.558-6.886-24.955-21.999-.978-10.582 19.183-60.265 26.744-76.601 1.768-3.822 4.503-6.202 7.601-7.389.721-.804 1.533-1.37 2.446-1.67 5.553-1.831 25.464-10.196 25.464-10.196l23.686 15.497 10.68-12.511zm-64.331 87.455-.053.138.066.008-.013-.146z" fill="#666AF6"/><path fill-rule="evenodd" clip-rule="evenodd" d="M217.881 247.76s7.225-1.453 10.182-3.774c2.956-2.321 11.91-3.962 11.91-3.962l-2.864 6.033s21.945-2.06 22.465.104c.52 2.165-5.828 4.519-5.828 4.519s-3.13 5.847-6.16 9.236c-2.867 3.207-17.112 2.825-22.106.824-4.315-1.729-9.006-.865-9.006-.865l1.407-12.115z" fill="#F8AE9D"/><path d="M201.076 93.176c1.189 1.556 3.285 1.899 5.012 2.206 2.321.414 3.469 1.275 4.674 3.587.763 1.477 1.526 3.095 2.891 3.895 1.112.655 1.078-1.002 1.243-2.282a2.563 2.563 0 0 1 .07-.355c.265-1.023 1.351-.851 1.666.158.289.914.908 1.688 1.695 2.119.128.07.265.132.401.105.185-.026.33-.202.45-.36.251-.329.5-.747.757-1.189.849-1.46 2.47-.948 3.419.45.595.871 1.301 1.767 2.273 1.97.313.07.707.017.851-.291.185-.378-.104-.756-.056-1.142.04-.361.193-.519.361-.827.658-1.187 2.183-1.23 3.112-.241.648.69 1.322 1.35 2.02 1.982.297.264.731.527 1.028.264.161-.141.201-.378.233-.607.169-1.117.329-2.233.498-3.35.096-.624.426-1.442.988-1.283.273.079.433.369.586.633.185.334 3.485 4.141 3.55 3.851.514-2.163 1.566-4.132 2.08-6.295 3.325-13.918-11.428-25.11-22.696-25.171-2.505-.018-4.794.024-7.228.613-2.594.633-5.332 1.638-7.685 3.053-3.301 1.978-5.799 5.574-5.156 9.865" fill="#31446C"/><path d="M210.239 88.677c1.589 1.817 2.01 4.374 2.157 6.79.219 3.642-.077 7.425-1.744 10.659-.475.92-.826 5.475-1.558 5.223-.233-.078-.194-3.611-.81-5.514-.95-2.95-5.327-4.075-7.297-2.211-3.147 2.966-1.301 6.569-.258 8.811.624 1.353 1.613 2.871 1.784 4.303.21 1.833.273 8.512-.911 10.07-.989 1.306-2.041-5.004-2.936-6.247-6.628-9.259-12.984-32.836-1.667-37.95 1.721-.778 7.033-1.18 8.645-.188" fill="#31446C"/><defs><linearGradient id="a" x1="541.89" y1="728.493" x2="315.629" y2="-292.32" gradientUnits="userSpaceOnUse"><stop stop-color="#fff"/><stop offset="1" stop-color="#EEE"/></linearGradient><linearGradient id="b" x1="566.205" y1="336.078" x2="463.079" y2="-127.329" gradientUnits="userSpaceOnUse"><stop stop-color="#fff"/><stop offset="1" stop-color="#EEE"/></linearGradient><linearGradient id="c" x1="344.711" y1="495.929" x2="352.672" y2="-187.855" gradientUnits="userSpaceOnUse"><stop stop-color="#fff"/><stop offset="1" stop-color="#EEE"/></linearGradient><linearGradient id="d" x1="387.038" y1="315.471" x2="387.958" y2="236.477" gradientUnits="userSpaceOnUse"><stop stop-color="#fff"/><stop offset="1" stop-color="#EEE"/></linearGradient><linearGradient id="e" x1="28.59" y1="85.588" x2="26.899" y2="-59.658" gradientUnits="userSpaceOnUse"><stop stop-color="#fff"/><stop offset="1" stop-color="#EEE"/></linearGradient><linearGradient id="f" x1="9.384" y1="28.092" x2="8.829" y2="-19.581" gradientUnits="userSpaceOnUse"><stop stop-color="#fff"/><stop offset="1" stop-color="#EEE"/></linearGradient><linearGradient id="g" x1="14.076" y1="42.138" x2="13.243" y2="-29.371" gradientUnits="userSpaceOnUse"><stop stop-color="#fff"/><stop offset="1" stop-color="#EEE"/></linearGradient><linearGradient id="i" x1="352.223" y1="480.711" x2="352.624" y2="515.142" gradientUnits="userSpaceOnUse"><stop stop-color="#fff"/><stop offset="1" stop-color="#EEE"/></linearGradient></defs></svg>