<svg width="900" height="600" viewBox="0 0 900 600" fill="none" xmlns="http://www.w3.org/2000/svg"><path fill="transparent" d="M0 0h900v600H0z"/><path d="M516.943 366.948c1.599 29.468-56.012 89.387-127.022 67.209-33.026-10.316-30.228-27.437-55.341-50.002-14.969-13.449-36.476-23.619-42.458-43.168-5.167-16.874-1.998-35.011 6.961-46.808 20.148-26.53 60.823-44.697 100.902-2.896 40.078 41.801 112.825-.333 116.958 75.665z" fill="url(#a)"/><path d="M489.252 265.024c-6.077 10.847-19.388 12.338-40.713 10.276-16.038-1.553-30.664-2.754-46.703-11.499-11.226-6.117-20.113-14.392-26.599-22.429-7.028-8.707-16.838-18.644-12.029-28.517 6.609-13.561 44.828-24.983 81.941-6.305 40.768 20.524 50.049 47.873 44.103 58.474z" fill="url(#b)"/><path d="M564.972 524.994c-21.451 10.641-49.921-3.041-49.921-3.041s6.327-30.928 27.789-41.554c21.451-10.641 49.91 3.026 49.91 3.026s-6.328 30.928-27.778 41.569z" fill="url(#c)"/><path d="M205.858 401.808c17.853 10.7 43.465.809 43.465.809s-3.349-27.235-21.212-37.922c-17.852-10.7-43.454-.821-43.454-.821s3.349 27.235 21.201 37.934z" fill="url(#d)"/><circle cx="772.641" cy="106.637" r="7.499" transform="rotate(180 772.641 106.637)" fill="#666af6"/><circle cx="309.083" cy="222.66" r="13.177" transform="rotate(180 309.083 222.66)" fill="#666af6"/><circle r="10.98" transform="matrix(-1 0 0 1 147.261 330.809)" fill="#666af6"/><circle r="5.124" transform="matrix(-1 0 0 1 772.408 440.654)" fill="#666af6"/><circle r="6.588" transform="matrix(-1 0 0 1 709.593 419.621)" fill="#E1E4E5"/><circle r="9.516" transform="matrix(-1 0 0 1 146.868 436.476)" fill="#E1E4E5"/><circle r="6.964" transform="matrix(-1 0 0 1 345.723 127.527)" fill="#E1E4E5"/><circle r="8.052" transform="matrix(-1 0 0 1 681.061 122.188)" fill="#E1E4E5"/><circle r="7.231" transform="scale(1 -1) rotate(-75 -89.047 -317.294)" fill="#E1E4E5"/><circle r="9.62" transform="matrix(-1 0 0 1 380.985 78.058)" fill="#E1E4E5"/><ellipse rx="7.4" ry="5.92" transform="matrix(-1 0 0 1 755.4 503.586)" fill="#E1E4E5"/><circle r="8.392" transform="scale(1 -1) rotate(-75 254.263 -445.741)" fill="#E1E4E5"/><path d="M798.716 314.472h.194c1.146 16.241 13.225 16.491 13.225 16.491s-13.32.26-13.32 19.027c0-18.767-13.319-19.027-13.319-19.027s12.074-.25 13.22-16.491zM309.238 72.355h.117c.691 10.287 7.978 10.446 7.978 10.446s-8.035.164-8.035 12.051c0-11.887-8.035-12.051-8.035-12.051s7.283-.159 7.975-10.446zM197.821 213.768h.117c.691 10.288 7.978 10.446 7.978 10.446s-8.035.165-8.035 12.052c0-11.887-8.035-12.052-8.035-12.052s7.284-.158 7.975-10.446z" fill="#E1E4E5"/><path fill="#fff" stroke="#E1E4E5" stroke-width="4" d="M121.282 484.81h303.182v38.567H121.282zm81.42-38.567h303.182v38.567H202.702zm81.42-38.567h303.182v38.567H284.122zm81.419-38.567h303.182v38.567H365.541zm81.42-38.568h303.182v38.567H446.961z"/><path d="M417.854 141.588c-.505 2.019.165 4.117 1.269 5.881.781 1.245 1.873-.13 3.464-.351 2.461-.345 4.02-2.95 4.553-9.298.246-4.637.13-6.95-.128-7.355-.92-1.449-3.285-1.934-5.149-1.794" fill="#30327E"/><path fill-rule="evenodd" clip-rule="evenodd" d="M422.323 417.5s-.15 9.534 5.735 12.92c5.883 3.386 14.999 9.679 14.999 9.679l-34.678 1.169.989-23.853 12.955.085z" fill="#F8AE9D"/><path fill-rule="evenodd" clip-rule="evenodd" d="m407.169 428.005-.564 15.466h8.054l.552-1.993s3.033-.124 4.785.737c1.853.91 2.102 1.352 2.102 1.352l25.549.053s1.261-4.998-6.528-8.614c-7.788-3.616-13.458-8.749-14.536-9.274-1.085-.529-3.274-.828-4.815.416-1.542 1.242-2.761 4.511-6.254 4.613-4.496.132-7.079-5.371-8.345-2.756zm-9.959-166.091s9.465 80.313 9.759 85.896c.295 5.583-3.04 15.218-2.975 25.661.065 10.443 1.218 47.249 1.218 47.249l20.879.34s8.775-66.511 8.87-76.484c.094-9.974.899-81.702.899-81.702l-38.65-.96z" fill="#30327E"/><path fill-rule="evenodd" clip-rule="evenodd" d="m371.674 415.824-4.069 24.711 15.001-.075.474-25.023-11.406.387z" fill="#F8AE9D"/><path fill-rule="evenodd" clip-rule="evenodd" d="M369.848 426.559a3 3 0 0 0-2.361 2.833l-.129 3.897c-2.129 2.368-3.131 9.222-3.231 9.939a.539.539 0 0 0-.005.127c.284 3.354 22.224 3.306 24.193.144.083-.132.088-.287.063-.441-.22-1.342-1.439-8.143-3.796-9.992l-.014-3.859a3.002 3.002 0 0 0-2.221-2.886l-2.461-.662c-2.193-3.206-5.182-3.093-7.742.401l-2.296.499zm9.191-163.888s-6.685 54.794-6.594 65.288c.091 10.493 2.057 15.102-.741 22.629-2.8 7.528-5.186 67.612-5.186 67.612l20.696 1.724s13.222-64.294 14.66-73.207c1.438-8.914 19.208-84.803 19.208-84.803l-42.043.757z" fill="#30327E"/><path fill-rule="evenodd" clip-rule="evenodd" d="M482.241 164.15s-1.729-9.63-1.107-11.581c.531-1.685 5.547-4.115 5.547-4.115s8.724-13.782 10.634-12.379c1.553 1.138-4.544 11.298-4.544 11.298s5.56 5.833 5.482 8.44c-.078 2.608-9.074 10.77-9.074 10.77l-6.938-2.433zm-89.671 2.262s5.746-1.349 5.946-10.764c.199-9.415.059-12.628.059-12.628l13.622-.229s.138 10.493.14 14.288c.006 8.263 6.142 10.495 6.142 10.495s-.51 9.035-11.979 9.68c-8.954.504-13.93-10.842-13.93-10.842z" fill="#F8AE9D"/><path fill-rule="evenodd" clip-rule="evenodd" d="M397.324 138.26c-5.646-.218-4.725 8.047 1.14 8.036 0 0 6.303 12.674 16.2 12.707 4.767.016 6.323-4.23 7.752-7.211 1.429-2.981 2.478-7.439 2.565-10.169.094-2.911.106-12.474.106-12.474l-27.983-.013.22 9.124z" fill="#F8AE9D"/><path fill-rule="evenodd" clip-rule="evenodd" d="M418.693 167.014s14.675 4.581 18.212 10.053c11.392 10.008 25.64 23.752 25.64 23.752s13.57-34.058 18.007-37.941c3.035-2.657 9.083.629 10.21 4.005 1.447 4.336-7.847 29.772-12.237 41.785v.002a391.996 391.996 0 0 0-1.885 5.218c-2.676 7.765-9.189 12.219-17.114 7.283-3.195-1.989-12.702-8.508-20.813-14.418-.127 6.208-.34 12.751-.543 18.965-.493 15.097-.923 28.252.109 29.962 5.116 8.472-1.686 14.289-24.205 16.426-22.52 2.137-42.499.387-38.873-10.92.756-2.357.746-7.428.369-14.017a262.274 262.274 0 0 1-6.613-.436c-9.399-.74-16.349-4.778-17.319-15.267-.679-7.344 13.313-41.824 18.56-53.162 1.227-2.652 3.125-4.304 5.275-5.127.501-.559 1.064-.951 1.698-1.16 3.854-1.27 17.672-7.076 17.672-7.076l16.439 10.756 7.411-8.683zm-44.645 60.694-.037.096.045.006a3.5 3.5 0 0 1-.008-.102z" fill="#666af6"/><path fill-rule="evenodd" clip-rule="evenodd" d="M410.523 236.808s5.013-1.008 7.066-2.619c2.051-1.611 8.265-2.749 8.265-2.749l-1.988 4.186s15.231-1.429 15.591.073c.361 1.503-4.044 3.136-4.044 3.136s-2.172 4.058-4.275 6.41c-1.99 2.226-11.876 1.961-15.342.572-2.994-1.2-6.25-.6-6.25-.6l.977-8.409z" fill="#F8AE9D"/><path d="M398.86 129.526c.825 1.08 2.279 1.318 3.478 1.532 1.61.286 2.407.884 3.243 2.489.53 1.025 1.059 2.148 2.007 2.703.772.454.748-.695.862-1.584a2.173 2.173 0 0 1 .049-.246c.184-.71.938-.591 1.157.109.2.635.629 1.172 1.176 1.471.089.049.184.091.278.073.128-.018.229-.14.312-.25a8.15 8.15 0 0 0 .525-.825c.59-1.014 1.715-.658 2.374.312.412.604.903 1.227 1.577 1.367.217.049.49.012.591-.201.128-.263-.073-.525-.039-.793.028-.251.133-.36.251-.574.456-.824 1.514-.854 2.159-.167.449.479.917.937 1.402 1.375.206.183.507.366.713.183.112-.097.14-.262.162-.421.117-.775.229-1.55.346-2.324.066-.434.295-1.001.685-.891.19.055.301.256.407.439.128.232 2.419 2.874 2.464 2.672.356-1.5 1.086-2.867 1.443-4.368 2.307-9.659-7.931-17.426-15.751-17.469-1.739-.012-3.327.017-5.016.426-1.8.439-3.701 1.136-5.334 2.119-2.29 1.372-4.024 3.868-3.578 6.845" fill="#30327E"/><path d="M405.219 126.404c1.102 1.261 1.394 3.036 1.497 4.712.151 2.528-.054 5.154-1.211 7.398-.33.638-.573 3.799-1.081 3.625-.162-.055-.135-2.506-.562-3.827-.659-2.048-3.697-2.829-5.065-1.535-2.183 2.059-.902 4.559-.178 6.115.432.939 1.119 1.993 1.238 2.987.146 1.272.189 5.907-.633 6.988-.686.906-1.416-3.472-2.037-4.335-4.6-6.426-9.011-22.789-1.157-26.337 1.194-.541 4.881-.819 6-.131" fill="#30327E"/><path fill-rule="evenodd" clip-rule="evenodd" d="M223.406 264.984h61.564c5.504 0 7.875-7.142 3.371-10.31l-.191-.134c-6.413-4.417-14.829-4.016-14.829-4.016s-1.202-23.9-23.847-23.9c-20.473 0-28.637 20.137-31.582 31.232-.957 3.604 1.792 7.128 5.514 7.128zm444.595-164.983h61.563c5.505 0 7.876-7.142 3.372-10.31a11.69 11.69 0 0 0-.191-.134c-6.413-4.417-14.829-4.015-14.829-4.015s-1.202-23.9-23.847-23.9c-20.473 0-28.638 20.137-31.582 31.231-.957 3.605 1.792 7.128 5.514 7.128zM107.704 266.055h61.564c5.504 0 7.875-7.142 3.371-10.31a9.147 9.147 0 0 0-.19-.134c-6.414-4.417-14.83-4.016-14.83-4.016s-1.201-23.9-23.846-23.9c-20.474 0-28.638 20.137-31.583 31.232-.957 3.604 1.792 7.128 5.514 7.128zm43.974-76.927H92.034c-4.828 0-6.91-6.183-2.958-8.927l.168-.115c5.627-3.825 13.012-3.478 13.012-3.478s1.055-20.691 20.924-20.691c9.823 0 17.762 16.606 17.762 16.606s13.364 0 15.575 10.433c.669 3.161-1.573 6.172-4.839 6.172zm630.707-22.373h-74.189c-6.006 0-8.597-7.603-3.68-10.976l.208-.142c7-4.703 16.186-4.276 16.186-4.276s1.312-25.44 26.027-25.44c12.219 0 22.095 20.417 22.095 20.417s16.622 0 19.373 12.828c.832 3.886-1.956 7.589-6.02 7.589zm-119.987-3.214h-74.189c-6.006 0-8.597-7.603-3.68-10.976l.208-.142c7-4.703 16.186-4.276 16.186-4.276s1.312-25.44 26.027-25.44c12.219 0 22.095 20.417 22.095 20.417s16.622 0 19.373 12.828c.832 3.886-1.956 7.589-6.02 7.589z" fill="#fff" stroke="#E1E4E5" stroke-width="4"/><path d="m551.347 122.606-18.479 5.1c-18.371 5.071-37.373-5.711-42.444-24.081-5.07-18.37 5.711-37.373 24.082-42.444 18.37-5.07 37.373 5.711 42.443 24.082l1.531 5.543c1.408 5.103-1.587 10.382-6.69 11.79-5.103 1.409-10.381-1.586-11.79-6.689l-1.53-5.544c-2.253-8.164-10.699-12.956-18.864-10.703v0c-8.164 2.254-12.956 10.7-10.703 18.864 2.254 8.165 10.7 12.957 18.864 10.703 8.165-2.253 12.957-10.7 10.703-18.864" stroke="#E1E4E5" stroke-width="4" stroke-linecap="round" stroke-linejoin="round"/><path fill-rule="evenodd" clip-rule="evenodd" d="M194.206 190.199h139.991c13.141 0 12.538-10.8 8.246-14.564-4.4-3.857-13.092-2.293-13.092-2.293s-2.588-7.265-11.107-10.801c-7.535-3.129-15.429-1.64-15.429-1.64s0-4.986-4.824-9.116c-4.825-4.129-11.258-3.728-11.258-3.728s-4.422-27.493-33.973-27.493c-29.55 0-32.968 25.887-32.968 25.887s-6.634 0-11.458 4.416c-4.825 4.415-5.428 9.431-5.428 9.431s-16.135-2.17-20.907 11.724c-2.844 8.282 2.999 18.177 12.207 18.177z" fill="#fff" stroke="#E1E4E5" stroke-width="4"/><path d="m537.311 207.469-12.04 12.028-5.85-5.832m43.977-11.953h35.585m-35.307 17.654h58.848m-85.213 29.296-12.04 12.029-5.85-5.832m43.977-11.953h35.585m-35.307 17.655h58.848m-.001 41.192h-59.125m59.126-17.654h-58.848" stroke="#E1E4E5" stroke-width="5.5" stroke-linecap="round" stroke-linejoin="round"/><path clip-rule="evenodd" d="M528.366 307.639c6.5 0 11.77-5.27 11.77-11.77s-5.27-11.77-11.77-11.77-11.77 5.27-11.77 11.77 5.27 11.77 11.77 11.77z" stroke="#E1E4E5" stroke-width="5.5" stroke-linecap="round" stroke-linejoin="round"/><path d="m689.438 207.469-12.041 12.028-5.849-5.832m43.977-11.953h35.585m-35.308 17.654h58.848m-85.212 29.296-12.041 12.029-5.849-5.832m43.977-11.953h35.585m-35.308 17.655h58.848m-.001 41.192h-59.124m59.125-17.654h-58.848" stroke="#E1E4E5" stroke-width="5.5" stroke-linecap="round" stroke-linejoin="round"/><path clip-rule="evenodd" d="M680.492 307.639c6.501 0 11.77-5.27 11.77-11.77s-5.269-11.77-11.77-11.77c-6.5 0-11.769 5.27-11.769 11.77s5.269 11.77 11.769 11.77z" stroke="#E1E4E5" stroke-width="5.5" stroke-linecap="round" stroke-linejoin="round"/><path fill-rule="evenodd" clip-rule="evenodd" d="M634.91 491.645h3.529c.853 0 1.54.694 1.54 1.54v3.529c0 .853-.694 1.54-1.54 1.54h-3.529c-.846 0-1.54-.694-1.54-1.54v-3.529a1.536 1.536 0 0 1 1.54-1.54zm12.235 0h3.529c.846 0 1.541.694 1.541 1.54v3.529c0 .853-.695 1.54-1.541 1.54h-3.529c-.846 0-1.54-.694-1.54-1.54v-3.529c0-.846.694-1.54 1.54-1.54zm12.244 0h3.529c.846 0 1.54.694 1.54 1.54v3.529c0 .853-.694 1.54-1.54 1.54h-3.529a1.547 1.547 0 0 1-1.541-1.54v-3.529a1.537 1.537 0 0 1 1.541-1.54zm12.235 0h3.529c.846 0 1.54.694 1.54 1.54v3.529c0 .853-.694 1.54-1.54 1.54h-3.529a1.548 1.548 0 0 1-1.548-1.54v-3.529a1.558 1.558 0 0 1 1.548-1.54zm12.236 0h3.529c.854 0 1.548.694 1.548 1.54v3.529c0 .853-.694 1.54-1.548 1.54h-3.529c-.846 0-1.54-.694-1.54-1.54v-3.529c0-.846.694-1.54 1.54-1.54zm-36.266 13.342h3.529c.846 0 1.54.694 1.54 1.54v3.536c0 .847-.694 1.541-1.54 1.541h-3.529c-.853 0-1.54-.694-1.54-1.541v-3.529a1.538 1.538 0 0 1 1.54-1.547zm12.235 0h3.529c.846 0 1.541.694 1.541 1.54v3.536c0 .847-.695 1.541-1.541 1.541h-3.529c-.846 0-1.54-.694-1.54-1.541v-3.529a1.538 1.538 0 0 1 1.54-1.547zm12.236 0h3.529c.854 0 1.548.694 1.548 1.54v3.536c0 .847-.694 1.541-1.548 1.541h-3.529c-.846 0-1.54-.694-1.54-1.541v-3.529c0-.853.694-1.547 1.54-1.547zm-12.676-27.676h3.529c.846 0 1.54.694 1.54 1.541v3.529c0 .853-.694 1.54-1.54 1.54h-3.529a1.547 1.547 0 0 1-1.541-1.54v-3.529a1.537 1.537 0 0 1 1.541-1.541zm12.235 0h3.529c.846 0 1.54.694 1.54 1.541v3.529c0 .853-.694 1.54-1.54 1.54h-3.529a1.548 1.548 0 0 1-1.548-1.54v-3.529a1.558 1.558 0 0 1 1.548-1.541z" fill="#E1E4E5"/><defs><linearGradient id="a" x1="448.086" y1="543.581" x2="340.321" y2="57.383" gradientUnits="userSpaceOnUse"><stop stop-color="#fff"/><stop offset="1" stop-color="#EEE"/></linearGradient><linearGradient id="b" x1="448.308" y1="335.323" x2="394.136" y2="91.894" gradientUnits="userSpaceOnUse"><stop stop-color="#fff"/><stop offset="1" stop-color="#EEE"/></linearGradient><linearGradient id="c" x1="482.599" y1="558.185" x2="659.524" y2="418.236" gradientUnits="userSpaceOnUse"><stop stop-color="#fff"/><stop offset="1" stop-color="#EEE"/></linearGradient><linearGradient id="d" x1="274.943" y1="436.25" x2="131.295" y2="302.783" gradientUnits="userSpaceOnUse"><stop stop-color="#fff"/><stop offset="1" stop-color="#EEE"/></linearGradient></defs></svg>