<svg width="900" height="600" viewBox="0 0 900 600" fill="none" xmlns="http://www.w3.org/2000/svg"><path fill="transparent" d="M0 0h900v600H0z"/><path d="M757.281 383.609h-59.469c-14.572 0-26.781-9.934-26.781-22.517 0-6.292 3.151-11.921 7.877-15.895 4.726-3.973 11.421-6.622 18.904-6.622h8.664c7.483 0 14.178-2.649 18.904-6.623 4.727-3.974 7.877-9.603 7.877-15.894 0-12.252-11.815-22.517-26.781-22.517H524.854c-4.755 0-7.812-5.842-7.812-10.597 0-11.92-11.421-21.523-25.599-21.523H423.86a6.457 6.457 0 0 1 0-12.914h258.986c11.422 0 22.055-3.974 29.538-10.265 7.483-6.292 12.209-15.232 12.209-24.835 0-19.537-18.904-35.1-41.747-35.1H549.095c-20.997 0-41.775-16.226-62.772-16.226h-74.652c-10.972 0-19.868-8.895-19.868-19.868 0-10.973 8.896-19.868 19.868-19.868h167.203c7.877 0 15.36-2.649 20.48-6.953 5.12-4.305 8.27-10.266 8.27-17.22 0-13.245-12.996-24.172-28.75-24.172H193.311c-7.876 0-15.359 2.65-20.479 6.954-5.12 4.305-8.271 10.265-8.271 17.219 0 13.245 12.997 24.172 28.75 24.172h9.846c12.997 0 24.024 8.941 24.024 20.199 0 5.63-2.757 10.597-7.089 14.239-4.332 3.643-10.24 5.96-16.935 5.96h-47.654c-8.27 0-16.147 2.981-21.661 7.616-5.513 4.636-9.058 10.928-9.058 18.213 0 14.238 13.784 25.497 30.325 25.497h48.442c15.753 0 28.75 10.927 28.75 24.173 0 6.622-3.151 12.583-8.271 16.887-5.12 4.305-12.209 6.954-20.085 6.954h-43.322c-7.089 0-13.39 2.318-18.116 6.292-4.726 3.973-7.483 9.271-7.483 15.232 0 11.92 11.421 21.523 25.599 21.523h35.051c20.086 0 36.233 13.577 36.233 30.464 0 8.279-3.938 16.226-10.634 21.524-6.695 5.629-15.753 8.941-25.599 8.941h-48.835c-9.846 0-18.904 3.311-25.205 8.94-6.696 5.298-10.634 12.914-10.634 21.193 0 16.556 16.147 30.133 35.839 30.133h150.788c16.656 0 33.016 9.271 49.673 9.271h27.432c10.516 0 19.041 8.525 19.041 19.041 0 10.515-8.525 19.04-19.041 19.04h-66.815c-8.665 0-16.147 2.98-21.661 7.616-5.514 4.636-9.058 11.258-9.058 18.212 0 14.239 13.784 25.828 30.719 25.828h409.587c8.664 0 16.147-2.98 21.661-7.616 5.513-4.636 9.058-11.258 9.058-18.212 0-14.239-13.784-25.828-30.719-25.828h-12.209c-12.603 0-22.449-8.61-22.449-18.875 0-5.298 2.363-9.934 6.696-13.245 3.938-3.312 9.845-5.629 16.147-5.629h51.592c8.664 0 16.147-2.981 21.661-7.616 5.514-4.636 9.058-11.259 9.058-18.213 0-14.901-13.784-26.49-30.719-26.49z" fill="url(#a)"/><path d="M362.99 263.56v-62.643 0c0-46.126 37.398-83.523 83.523-83.523v0c46.126 0 83.524 37.397 83.524 83.523v62.643" stroke="#666AF6" stroke-width="32.641" stroke-linecap="round" stroke-linejoin="round"/><path fill-rule="evenodd" clip-rule="evenodd" d="M570.088 519.041h-247.15c-27.311 0-49.431-22.12-49.431-49.43V296.606c0-27.31 22.12-49.43 49.431-49.43h247.15c27.31 0 49.43 22.12 49.43 49.43v173.005c0 27.31-22.12 49.43-49.43 49.43z" fill="#666AF6" stroke="#666AF6" stroke-width="24.31" stroke-linecap="round" stroke-linejoin="round"/><path d="M444.889 442.41v-61.99m-.07-36.923c-10.064 0-18.232 8.168-18.159 18.232 0 10.064 8.168 18.232 18.232 18.232s18.232-8.168 18.232-18.232-8.168-18.232-18.305-18.232" stroke="#fff" stroke-width="50.726" stroke-linecap="round" stroke-linejoin="round"/><path fill-rule="evenodd" clip-rule="evenodd" d="M750.542 203.178c0 73.948-55.667 143.093-130.482 159.882-74.815-16.789-130.482-85.934-130.482-159.882v-58.087a32.554 32.554 0 0 1 20.274-30.142l81.551-33.319a75.743 75.743 0 0 1 57.314 0l81.551 33.319c12.265 5.015 20.274 16.919 20.274 30.142v58.087z" fill="#31446C"/><path d="m671 183.88-59.761 59.236-35.928-35.528" stroke="#fff" stroke-width="28" stroke-linecap="round" stroke-linejoin="round"/><defs><linearGradient id="a" x1="463.935" y1="778.377" x2="454.656" y2="-417.064" gradientUnits="userSpaceOnUse"><stop stop-color="#fff"/><stop offset="1" stop-color="#EEE"/></linearGradient></defs></svg>