<svg width="900" height="600" viewBox="0 0 900 600" fill="none" xmlns="http://www.w3.org/2000/svg"><path fill="transparent" d="M0 0h900v600H0z"/><circle cx="461.301" cy="300.214" r="281.815" stroke="url(#a)" stroke-width="2.797"/><path fill="#666AF6" d="M349.115 280.207h225.792v170.776H349.115z"/><path fill-rule="evenodd" clip-rule="evenodd" d="M462.584 284.886c-28.274 0-53.46 1.03-74.037 2.338-19.518 1.241-34.526 16.133-35.927 35.513-.996 13.787-1.69 28.313-1.69 41.902 0 13.589.694 28.116 1.69 41.903 1.401 19.38 16.409 34.272 35.927 35.512a1172.98 1172.98 0 0 0 74.037 2.338c28.274 0 53.459-1.03 74.036-2.338 19.519-1.24 34.527-16.132 35.928-35.512.996-13.787 1.69-28.314 1.69-41.903 0-13.589-.694-28.115-1.69-41.902-1.401-19.38-16.409-34.272-35.928-35.513a1172.946 1172.946 0 0 0-74.036-2.338zm-76.06-29.499c-35.375 2.249-63.167 29.697-65.722 65.05-1.031 14.269-1.773 29.607-1.773 44.202 0 14.596.742 29.933 1.773 44.202 2.555 35.354 30.347 62.802 65.722 65.05a1204.644 1204.644 0 0 0 76.06 2.402c29.039 0 54.905-1.057 76.06-2.402 35.375-2.248 63.167-29.696 65.722-65.05 1.031-14.269 1.773-29.606 1.773-44.202 0-14.595-.742-29.933-1.773-44.202-2.555-35.353-30.347-62.801-65.722-65.05a1204.67 1204.67 0 0 0-76.06-2.402c-29.039 0-54.906 1.057-76.06 2.402z" fill="#666AF6"/><path fill-rule="evenodd" clip-rule="evenodd" d="M478.535 376.322c9.535-5.516 15.95-15.825 15.95-27.633 0-17.619-14.282-31.901-31.901-31.901-17.618 0-31.901 14.282-31.901 31.901 0 11.808 6.415 22.117 15.95 27.633v20.219c0 8.809 7.142 15.95 15.951 15.95 8.809 0 15.951-7.141 15.951-15.95v-20.219z" fill="#fff"/><path fill-rule="evenodd" clip-rule="evenodd" d="M382.831 205.133c0-44.046 35.706-79.753 79.753-79.753 44.046 0 79.753 35.707 79.753 79.753v63.803c0 8.809-7.142 15.95-15.951 15.95-8.809 0-15.95-7.141-15.95-15.95v-63.803c0-26.427-21.424-47.851-47.852-47.851-26.428 0-47.852 21.424-47.852 47.851v63.803c0 8.809-7.141 15.95-15.951 15.95-8.809 0-15.95-7.141-15.95-15.95v-63.803z" fill="#666AF6"/><path d="M776.364 342.178c-25.195 12.498-58.637-3.573-58.637-3.573s7.433-36.327 32.642-48.809c25.196-12.498 58.623 3.555 58.623 3.555s-7.432 36.328-32.628 48.827z" fill="url(#b)"/><circle cx="678.548" cy="396.646" r="16.819" transform="rotate(180 678.548 396.646)" fill="#666AF6"/><circle cx="264.502" cy="63.165" r="18.921" transform="rotate(180 264.502 63.165)" fill="#666AF6"/><circle r="15.768" transform="matrix(-1 0 0 1 145.018 349.664)" fill="#666AF6"/><circle r="7.358" transform="matrix(-1 0 0 1 733.35 256.515)" fill="#666AF6"/><circle r="9.461" transform="matrix(-1 0 0 1 538.815 533.207)" fill="#E1E4E5"/><circle r="13.665" transform="matrix(-1 0 0 1 416.755 556.787)" fill="#E1E4E5"/><circle r="10.401" transform="matrix(-1 0 0 1 665.68 101.363)" fill="#E1E4E5"/><circle r="11.563" transform="matrix(-1 0 0 1 247.943 363.068)" fill="#E1E4E5"/><circle r="10.383" transform="scale(1 -1) rotate(-75 93.505 -282.536)" fill="#E1E4E5"/><circle r="13.813" transform="matrix(-1 0 0 1 507.766 68.383)" fill="#E1E4E5"/><ellipse rx="10.626" ry="8.501" transform="matrix(-1 0 0 1 207.411 484.29)" fill="#E1E4E5"/><circle r="21.61" transform="scale(1 -1) rotate(-75 266.862 -412.362)" fill="#E1E4E5"/><path d="M96.984 233.82h.278c1.646 23.323 18.99 23.682 18.99 23.682s-19.126.373-19.126 27.322c0-26.949-19.126-27.322-19.126-27.322s17.338-.359 18.984-23.682zm702.83 174.881h.247c1.461 21.109 16.851 21.434 16.851 21.434s-16.971.338-16.971 24.728c0-24.39-16.971-24.728-16.971-24.728s15.384-.325 16.844-21.434z" fill="#E1E4E5"/><path fill-rule="evenodd" clip-rule="evenodd" d="M304.03 231.423h-5.982a2.614 2.614 0 0 1-2.612-2.611v-5.983a2.613 2.613 0 0 1 2.612-2.611h5.982a2.622 2.622 0 0 1 2.612 2.611v5.983c.012 1.434-1.165 2.611-2.612 2.611zm-20.816.47h-5.983a2.621 2.621 0 0 1-2.611-2.611v-5.983a2.613 2.613 0 0 1 2.611-2.611h5.983a2.62 2.62 0 0 1 2.611 2.611v5.983a2.621 2.621 0 0 1-2.611 2.611zm-20.683-.47h-5.982a2.622 2.622 0 0 1-2.612-2.611v-5.983a2.613 2.613 0 0 1 2.612-2.611h5.982a2.622 2.622 0 0 1 2.612 2.611v5.983c.012 1.434-1.165 2.611-2.612 2.611zm-20.743 0h-5.983a2.622 2.622 0 0 1-2.612-2.611v-5.983a2.613 2.613 0 0 1 2.612-2.611h5.983a2.624 2.624 0 0 1 2.623 2.611v5.983a2.64 2.64 0 0 1-2.623 2.611zm-20.744 0h-5.983a2.624 2.624 0 0 1-2.624-2.611v-5.983a2.616 2.616 0 0 1 2.624-2.611h5.983a2.621 2.621 0 0 1 2.611 2.611v5.983a2.621 2.621 0 0 1-2.611 2.611zm61.483-22.618h-5.983a2.622 2.622 0 0 1-2.612-2.611v-5.995a2.622 2.622 0 0 1 2.612-2.612h5.983a2.614 2.614 0 0 1 2.611 2.612v5.983a2.609 2.609 0 0 1-2.611 2.623zm-20.744 0H255.8a2.621 2.621 0 0 1-2.611-2.611v-5.995a2.622 2.622 0 0 1 2.611-2.612h5.983a2.62 2.62 0 0 1 2.611 2.612v5.983a2.607 2.607 0 0 1-2.611 2.623zm-20.743 0h-5.983a2.624 2.624 0 0 1-2.623-2.611v-5.995a2.624 2.624 0 0 1 2.623-2.612h5.983a2.622 2.622 0 0 1 2.611 2.612v5.983a2.624 2.624 0 0 1-2.611 2.623zm21.491 46.919h-5.982a2.622 2.622 0 0 1-2.612-2.612v-5.982a2.614 2.614 0 0 1 2.612-2.612h5.982a2.622 2.622 0 0 1 2.612 2.612v5.982c.012 1.435-1.165 2.612-2.612 2.612zm20.37 0h-5.983a2.622 2.622 0 0 1-2.612-2.612v-5.982a2.614 2.614 0 0 1 2.612-2.612h5.983a2.622 2.622 0 0 1 2.611 2.612v5.982c.012 1.435-1.165 2.612-2.611 2.612zm-41.113 0h-5.983a2.622 2.622 0 0 1-2.612-2.612v-5.982a2.614 2.614 0 0 1 2.612-2.612h5.983a2.624 2.624 0 0 1 2.623 2.612v5.982c-.012 1.435-1.189 2.612-2.623 2.612zm455.372-41.492h-5.983a2.613 2.613 0 0 1-2.611-2.611v-5.983a2.614 2.614 0 0 1 2.611-2.612h5.983a2.622 2.622 0 0 1 2.611 2.612v5.983c.012 1.434-1.165 2.611-2.611 2.611zm-20.818.47h-5.982a2.622 2.622 0 0 1-2.612-2.612v-5.983a2.614 2.614 0 0 1 2.612-2.611h5.982a2.622 2.622 0 0 1 2.612 2.611v5.983a2.622 2.622 0 0 1-2.612 2.612zm-20.681-.47h-5.983a2.622 2.622 0 0 1-2.612-2.611v-5.983a2.614 2.614 0 0 1 2.612-2.612h5.983a2.622 2.622 0 0 1 2.611 2.612v5.983c.012 1.434-1.165 2.611-2.611 2.611zm-20.744 0h-5.983a2.62 2.62 0 0 1-2.611-2.611v-5.983a2.613 2.613 0 0 1 2.611-2.612h5.983a2.624 2.624 0 0 1 2.623 2.612v5.983a2.64 2.64 0 0 1-2.623 2.611zm-20.744 0h-5.983a2.624 2.624 0 0 1-2.624-2.611v-5.983a2.617 2.617 0 0 1 2.624-2.612h5.983a2.622 2.622 0 0 1 2.611 2.612v5.983a2.621 2.621 0 0 1-2.611 2.611zm61.483-22.618h-5.983a2.62 2.62 0 0 1-2.611-2.612v-5.995a2.62 2.62 0 0 1 2.611-2.611h5.983a2.614 2.614 0 0 1 2.611 2.611v5.983a2.609 2.609 0 0 1-2.611 2.624zm-20.744 0h-5.983a2.622 2.622 0 0 1-2.611-2.612v-5.995a2.621 2.621 0 0 1 2.611-2.611h5.983a2.621 2.621 0 0 1 2.611 2.611v5.983a2.607 2.607 0 0 1-2.611 2.624zm-20.743 0h-5.983a2.624 2.624 0 0 1-2.623-2.612v-5.995a2.624 2.624 0 0 1 2.623-2.611h5.983a2.62 2.62 0 0 1 2.611 2.611v5.983a2.623 2.623 0 0 1-2.611 2.624zm21.492 46.918h-5.983a2.622 2.622 0 0 1-2.612-2.611v-5.983a2.614 2.614 0 0 1 2.612-2.611h5.983a2.621 2.621 0 0 1 2.611 2.611v5.983c.012 1.434-1.165 2.611-2.611 2.611zm20.368 0h-5.982a2.622 2.622 0 0 1-2.612-2.611v-5.983a2.614 2.614 0 0 1 2.612-2.611h5.982a2.622 2.622 0 0 1 2.612 2.611v5.983c.012 1.434-1.165 2.611-2.612 2.611zm-41.112 0h-5.983a2.62 2.62 0 0 1-2.611-2.611v-5.983a2.613 2.613 0 0 1 2.611-2.611h5.983a2.624 2.624 0 0 1 2.623 2.611v5.983a2.64 2.64 0 0 1-2.623 2.611z" fill="#E1E4E5"/><defs><linearGradient id="a" x1="473.378" y1="901" x2="455.913" y2="-599.177" gradientUnits="userSpaceOnUse"><stop stop-color="#fff"/><stop offset="1" stop-color="#EEE"/></linearGradient><linearGradient id="b" x1="679.61" y1="381.164" x2="887.426" y2="216.78" gradientUnits="userSpaceOnUse"><stop stop-color="#fff"/><stop offset="1" stop-color="#EEE"/></linearGradient></defs></svg>