<svg width="900" height="600" viewBox="0 0 900 600" fill="none" xmlns="http://www.w3.org/2000/svg"><path fill="transparent" d="M0 0h900v600H0z"/><path d="M517.007 445.689H156.723c-10.353 0-18.749-8.397-18.749-18.75V201.197c0-10.354 8.396-18.75 18.749-18.75h360.284c10.354 0 18.75 8.396 18.75 18.75v225.742c0 10.353-8.396 18.75-18.75 18.75z" fill="#fff" stroke="#E1E4E5" stroke-width="4"/><path d="M535.757 206.742H137.974v-5.545c0-10.354 8.396-18.75 18.749-18.75h360.284c10.354 0 18.75 8.396 18.75 18.75v5.545z" fill="#fff" stroke="#E1E4E5" stroke-width="4"/><path d="M156.02 198.361a3.838 3.838 0 1 0 0-7.677 3.838 3.838 0 0 0 0 7.677zm15.354 0a3.84 3.84 0 1 0 0-7.679 3.84 3.84 0 0 0 0 7.679zm15.781 0c2.356 0 4.265-1.719 4.265-3.839s-1.909-3.839-4.265-3.839c-2.355 0-4.265 1.719-4.265 3.839s1.91 3.839 4.265 3.839z" fill="#E1E4E5"/><path d="M675.693 369.242H315.41c-10.354 0-18.75-8.397-18.75-18.75V124.75c0-10.354 8.396-18.75 18.75-18.75h360.283c10.354 0 18.75 8.396 18.75 18.75v225.742c0 10.353-8.396 18.75-18.75 18.75z" fill="#fff" stroke="#E1E4E5" stroke-width="4"/><path d="M694.443 130.295H296.66v-5.545c0-10.354 8.396-18.75 18.75-18.75h360.284c10.353 0 18.749 8.396 18.749 18.75v5.545z" fill="#fff" stroke="#E1E4E5" stroke-width="4"/><path d="M314.706 121.913a3.838 3.838 0 1 0 0-7.677 3.838 3.838 0 0 0 0 7.677zm15.354 0a3.838 3.838 0 1 0 .001-7.677 3.838 3.838 0 0 0-.001 7.677zm15.781 0c2.356 0 4.265-1.718 4.265-3.838s-1.909-3.839-4.265-3.839c-2.355 0-4.265 1.719-4.265 3.839s1.91 3.838 4.265 3.838z" fill="#E1E4E5"/><mask id="a" fill="#fff"><path fill-rule="evenodd" clip-rule="evenodd" d="M431.379 497.861H154.888c-2.072 0-3.767 1.714-3.767 3.809s1.695 3.809 3.767 3.809h12.139c1.15 0 2.092.952 2.092 2.114 0 1.163-.942 2.115-2.092 2.115h-3.663c-1.437 0-2.617 1.193-2.617 2.646 0 1.458 1.18 2.646 2.617 2.646h574.683c1.433 0 2.608-1.193 2.608-2.646 0-1.453-1.175-2.646-2.608-2.646h-4.633c-1.146 0-2.084-.952-2.084-2.115 0-1.162.938-2.114 2.084-2.114h12.664c2.065 0 3.754-1.714 3.754-3.809s-1.689-3.809-3.754-3.809H431.379zm-272.015 14.598c0 1.398-1.13 2.541-2.513 2.541s-2.513-1.143-2.513-2.541v-.21c0-1.398 1.13-2.541 2.513-2.541s2.513 1.143 2.513 2.541v.21z"/></mask><path fill-rule="evenodd" clip-rule="evenodd" d="M431.379 497.861H154.888c-2.072 0-3.767 1.714-3.767 3.809s1.695 3.809 3.767 3.809h12.139c1.15 0 2.092.952 2.092 2.114 0 1.163-.942 2.115-2.092 2.115h-3.663c-1.437 0-2.617 1.193-2.617 2.646 0 1.458 1.18 2.646 2.617 2.646h574.683c1.433 0 2.608-1.193 2.608-2.646 0-1.453-1.175-2.646-2.608-2.646h-4.633c-1.146 0-2.084-.952-2.084-2.115 0-1.162.938-2.114 2.084-2.114h12.664c2.065 0 3.754-1.714 3.754-3.809s-1.689-3.809-3.754-3.809H431.379zm-272.015 14.598c0 1.398-1.13 2.541-2.513 2.541s-2.513-1.143-2.513-2.541v-.21c0-1.398 1.13-2.541 2.513-2.541s2.513 1.143 2.513 2.541v.21z" fill="#E1E4E5"/><path d="M154.888 501.861h276.491v-8H154.888v8zm.233-.191a.185.185 0 0 1-.049.123.27.27 0 0 1-.184.068v-8c-4.322 0-7.767 3.546-7.767 7.809h8zm-.233-.191a.27.27 0 0 1 .184.068.185.185 0 0 1 .049.123h-8c0 4.262 3.445 7.809 7.767 7.809v-8zm12.139 0h-12.139v8h12.139v-8zm6.092 6.114c0-3.33-2.692-6.114-6.092-6.114v8a1.89 1.89 0 0 1-1.908-1.886h8zm-6.092 6.115c3.4 0 6.092-2.784 6.092-6.115h-8a1.89 1.89 0 0 1 1.908-1.885v8zm-3.663 0h3.663v-8h-3.663v8zm1.383-1.354c0 .714-.57 1.354-1.383 1.354v-8c-3.688 0-6.617 3.025-6.617 6.646h8zM163.364 511c.808 0 1.383.64 1.383 1.354h-8c0 3.631 2.934 6.646 6.617 6.646v-8zm269.971 0H163.364v8h269.971v-8zm6.49 0h-6.49v8h6.49v-8zm22.819 0h-22.819v8h22.819v-8zm275.403 0H462.644v8h275.403v-8zm-1.392 1.354c0-.701.561-1.354 1.392-1.354v8c3.696 0 6.608-3.038 6.608-6.646h-8zm1.392 1.354a1.363 1.363 0 0 1-1.392-1.354h8c0-3.608-2.912-6.646-6.608-6.646v8zm-4.633 0h4.633v-8h-4.633v8zm-6.084-6.115c0 3.317 2.675 6.115 6.084 6.115v-8c1.118 0 1.916.894 1.916 1.885h-8zm6.084-6.114c-3.409 0-6.084 2.797-6.084 6.114h8c0 .992-.798 1.886-1.916 1.886v-8zm12.664 0h-12.664v8h12.664v-8zm-.246.191c0-.046.022-.091.048-.118a.29.29 0 0 1 .198-.073v8c4.328 0 7.754-3.56 7.754-7.809h-8zm.246.191a.29.29 0 0 1-.198-.073.179.179 0 0 1-.048-.118h8c0-4.249-3.426-7.809-7.754-7.809v8zm-275.374 0h275.374v-8H470.704v8zm-39.325 0h39.325v-8h-39.325v8zM156.851 519c3.633 0 6.513-2.975 6.513-6.541h-8c0-.769.62-1.459 1.487-1.459v8zm-6.513-6.541c0 3.566 2.88 6.541 6.513 6.541v-8c.867 0 1.487.69 1.487 1.459h-8zm0-.21v.21h8v-.21h-8zm6.513-6.541c-3.633 0-6.513 2.975-6.513 6.541h8c0 .769-.62 1.459-1.487 1.459v-8zm6.513 6.541c0-3.566-2.88-6.541-6.513-6.541v8c-.867 0-1.487-.69-1.487-1.459h8zm0 .21v-.21h-8v.21h8z" fill="#E1E4E5" mask="url(#a)"/><path d="M251.457 469.214h153.572l-24.42-114.33H227.037l24.42 114.33z" fill="#30327E"/><path d="M245.777 469.215h153.572l-24.421-114.33H221.356l24.421 114.33z" fill="#666af6"/><path d="M297.082 405.424c.83 5.247 5.758 9.498 11.004 9.498 5.247 0 8.821-4.251 7.992-9.498-.83-5.247-5.758-9.498-11.004-9.498-5.247 0-8.821 4.251-7.992 9.498z" fill="#fff"/><path d="M289.206 499.074h75.535v-5.873l-75.535-2.438v8.311z" fill="#666af6"/><path d="M268.678 499.06h40.544l24.421-64.058h-40.544l-24.421 64.058z" fill="#666af6"/><path d="M262.002 499.06h40.557l24.421-64.058h-40.557l-24.421 64.058z" fill="#30327E"/><path d="M470.912 344.058c2.969 4.657 10.725 10.085 16.226 10.011 18.741-.344 24.91-13.109 26.933-17.758-.381-.092-1.021-.167-1.475-.222-3.452-.501-6.977-3.915-8.007-7.765-1.326-5.01-2.959-14.807-2.764-21.032l-23.704 13.118c.037 1.8.157 3.767.324 5.752.121 1.206.241 2.394.381 3.544.129 1.104.278 2.152.417 3.117.436 3.247-1.011 6.467-3.748 8.257l-4.583 2.978z" fill="#F8AE9D"/><path d="M468.872 293.032c1.28 3.359.742 7.172-.557 10.521-.919 2.366-2.96.278-5.502.324-3.933.065-7.004-4.026-9.379-14.871-1.512-7.96-1.893-11.996-1.587-12.766 1.086-2.756 4.667-4.231 7.617-4.49" fill="#30327E"/><path d="M462.887 269.18c-6.197 7.468-8.452 28.482-3.219 43.122 3.72 10.409 8.043 17.126 13.09 16.912 7.664-.324 22.517-6.624 27.35-11.884 8.712-9.472 6.179-28.046 4.379-39.735-1.632-10.623-6.605-24.419-19.955-21.793-8.777 1.716-16.088 6.67-21.645 13.378z" fill="#F8AE9D"/><path d="M497.95 277.429c-1.375 1.766-3.798 2.155-5.795 2.504-2.683.469-4.011 1.447-5.404 4.071-.882 1.676-1.764 3.512-3.343 4.42-1.282.741-1.234-1.151-1.441-2.618a2.818 2.818 0 0 0-.078-.38c-.312-1.171-1.558-.97-1.926.185-.334 1.037-1.049 1.915-1.959 2.404-.148.08-.306.15-.464.12-.214-.03-.381-.23-.52-.409-.292-.377-.583-.856-.883-1.363-.985-1.663-2.846-1.066-3.946.525-.687.988-1.504 2.005-2.628 2.235-.362.08-.817.02-.984-.329-.213-.43.121-.859.065-1.298-.046-.409-.223-.588-.418-.938-.766-1.357-2.514-1.406-3.591-.279a40.158 40.158 0 0 1-2.342 2.255c-.344.299-.845.599-1.189.299-.185-.159-.232-.429-.269-.688-.195-1.267-.381-2.534-.576-3.802-.111-.708-.492-1.636-1.142-1.456-.316.089-.501.419-.678.718-.213.379-4.03 4.7-4.104 4.37-.594-2.454-1.811-4.689-2.405-7.144-3.844-15.795 13.214-28.496 26.241-28.566 2.897-.02 5.544.027 8.357.695 3 .719 6.166 1.859 8.887 3.465 3.816 2.245 6.704 6.326 5.961 11.196" fill="#30327E"/><path d="M491.815 272.009c-1.893 2.143-2.394 5.158-2.57 8.007-.26 4.295.093 8.758 2.078 12.571.566 1.085.984 6.457 1.856 6.16.278-.093.232-4.259.965-6.504 1.131-3.479 6.345-4.805 8.693-2.607 3.748 3.498 1.549 7.747.306 10.391-.743 1.596-1.921 3.386-2.125 5.075-.25 2.162-.325 10.038 1.086 11.875 1.178 1.54 2.43-5.9 3.497-7.366 7.895-10.92 15.466-38.724 1.986-44.755-2.051-.918-8.378-1.391-10.298-.223M445.5 497.406c-.779.13-4.183-.028-5 0-4.342.139-10.76.724-15 0-3.729-.64-3.499-6.634-3.425-11.133.65-35.635 5.892-71.177 15.317-105.55 1.438-5.251 3.006-10.539 5.762-15.234 4.703-8.006 15.502-14.918 23.787-18.796 1.169-.547 6.012 2.533 7.19 2.004 1.03-.464 1.939-1.188 2.978-1.642 3.043-1.327 5.084 1.447 7.626 2.607 1.318.594 2.784.974 4.231.909 1.178-.046 2.245-.761 3.321-.204 4.843 2.505 16.867-16.087 16.867-16.087l5.223 5.427 15.243 15.967 38.093 52.482s6.912 43.011 11.662 71.205c.826 4.862 4.092 15.373 4.741 19.056-.139-.798-32.518-1.011-34.262-1.011h-65.991c-3.701 0-13.656 1.568-16.254-1.151-3.2-3.339-6.902-18.666-7.097-22.961-.64-14.445.353-28.779.547-43.308-.083 5.91-1.781 11.254-2.505 17.043-.937 7.45-2.273 14.891-3.479 22.303-.964 5.956-1.892 11.931-2.634 17.924-.334 2.7.092 4.305-2.19 5.363-1.92.881-2.506 4.407-4.751 4.787z" fill="#30327E"/><path d="M431.163 499.355h52.776c4.508 0-2.016-12.822-18.446-17.745-16.438-4.923-39.513 12.934-34.33 17.745z" fill="#666af6"/><path d="M451.875 499.355c-.346-1.41-.814-2.768-1.324-4.092a25.066 25.066 0 0 0-1.878-3.807c-.7-1.229-1.583-2.327-2.543-3.366l-.744-.761-.814-.692c-.51-.511-1.15-.839-1.713-1.315 1.324.562 2.665 1.254 3.738 2.284a14.037 14.037 0 0 1 2.812 3.409c1.514 2.526 2.414 5.424 2.466 8.34z" fill="#30327E"/><path d="M445.619 487.147a127.164 127.164 0 0 0-4.248 2.414c-1.393.839-2.768 1.687-4.075 2.63-1.315.926-2.569 1.938-3.677 3.089-1.081 1.159-2.068 2.466-2.457 4.066.043-1.67.9-3.236 1.947-4.516 1.064-1.298 2.336-2.379 3.677-3.348 2.717-1.887 5.693-3.366 8.833-4.335z" fill="#30327E"/><path d="M457.978 480.697c1.763-.723 12.645-3.423 17.553-4.444 2.57-.528 14.223-3.553 16.922-3.553 2.7 0 6.374 3.86 6.374 3.86l-.974 13.276c-2.598-.26-6.077 1.085-7.942 1.345-1.865.26-8.201.297-12.098-1.661-.222-.111-.426-.232-.63-.352-1.568 1.391-3.535 2.746-5.715 2.857 0 0-1.707-.176-1.54-.863.074-.334 1.206-2.059 2.337-3.748-1.669 1.698-4.397 4.453-7.542 4.611 0 0-1.707-.176-1.54-.863.093-.408 1.725-2.848 3.043-4.787-.019.019-.047.028-.056.047-1.382 1.215-4.666 5.408-8.554 5.603 0 0-1.707-.176-1.54-.863.056-.25.705-1.28 1.494-2.477a22.47 22.47 0 0 1-3.683 2.301c-4.203 2.078-6.597.501-6.597 0-.009-.51 8.925-9.565 10.688-10.289z" fill="#F8AE9D"/><path d="M495.82 465.278s-6.772 3.841-6.169 12.005c.603 8.165 3.052 17.628 13.276 16.635 10.224-.983-7.107-28.64-7.107-28.64z" fill="#30327E"/><path d="M501.277 493.11c24.511 8.508 57.307.381 78.098-13.749 13.026-8.832 21.338-20.048 19.937-31.005-3.627-28.464-25.995-93.703-45.348-103.222-13.155-6.475-29.113-9.156-38.01-10.233-4.175-.51-6.782-.63-6.782-.63l3.229 9.11 16.161 45.571c.603 27.044 19.956 43.103 16.106 49.403-3.85 6.281-34.253 13.062-50.219 23.815-4.416 2.987-10.02 24.595 6.828 30.94z" fill="#30327E"/><path d="M528.562 388.953c-.018 5.13.696 10.27 2.032 15.243 1.345 4.972 3.312 9.769 5.594 14.389a149.202 149.202 0 0 0 3.609 6.81c1.234 2.245 2.505 4.471 3.544 6.754.511 1.141.956 2.319 1.132 3.479.047.566.093 1.15-.065 1.642-.037.269-.195.473-.287.714-.177.214-.297.445-.52.65-1.661 1.66-4.036 2.783-6.29 3.868-9.259 4.222-19.093 7.348-28.463 11.56-4.686 2.106-9.324 4.379-13.638 7.218l-.798.538c-.269.186-.52.427-.779.64-.483.473-.9.993-1.234 1.559-.687 1.122-1.151 2.347-1.513 3.59-.686 2.496-.974 5.066-.992 7.636.167-2.552.593-5.103 1.345-7.524.798-2.403 2.032-4.741 4.342-5.864 4.332-2.69 8.98-4.833 13.693-6.81 4.723-1.948 9.501-3.794 14.297-5.585 4.796-1.818 9.621-3.553 14.334-5.705 2.319-1.151 4.703-2.236 6.679-4.231.251-.241.455-.575.668-.863.158-.352.372-.686.427-1.057.223-.742.149-1.475.084-2.171-.223-1.373-.724-2.616-1.262-3.804-1.104-2.375-2.394-4.592-3.646-6.828-1.253-2.236-2.514-4.453-3.711-6.708-4.778-8.98-8.099-18.861-8.582-29.14z" fill="#fff"/><path d="M465.04 347.574c2.338 2.32 12.747 9.733 22.674 9.733 1.652 0 3.396-.149 5.242-.492 8.331-1.522 15.345-7.079 19.446-13.443a28.34 28.34 0 0 0 1.976-3.665 20.935 20.935 0 0 0 1.577-4.806c-4.175-.51-8.164-1.558-8.814-2.3-.705 4.861-6.707 13.638-15.799 15.289a19.532 19.532 0 0 1-3.247.325h-.019a17.87 17.87 0 0 1-9.779-2.663c-.018 0-4.351-3.414-4.369-3.433l-8.888 5.455z" fill="#30327E"/><path d="M458.507 453.559c.026-.454-.033-.903-.016-1.358.018-.491.073-.971.11-1.462l.269-2.809c.173-1.914.346-3.828.491-5.743.288-3.794.483-7.602.586-11.406.196-7.608.086-15.234-.426-22.827-.14-2.126-.318-4.245-.515-6.366a364.145 364.145 0 0 0-.337-3.262c-.116-1.066-.289-2.125-.303-3.204-.008-.67.998-.715 1.149-.093.444 1.846.509 3.829.7 5.717.181 1.896.344 3.792.488 5.695.277 3.835.46 7.674.551 11.516.164 7.648-.108 15.298-.761 22.928-.185 2.145-.398 4.28-.658 6.412a128.901 128.901 0 0 1-.434 3.255c-.073.479-.137.959-.229 1.428-.115.551-.32 1.06-.434 1.611-.063.126-.246.079-.231-.032z" fill="#fff"/><path d="M460.642 305.492c-.064 0-.24-.102-.092-.102.074 0 .24.102.092.102z" fill="#CC6144"/><path d="m651.588 455.331-3.416 42.488h-23.638l-3.423-42.488h30.477z" fill="#666af6"/><path d="M653.543 451.5h-34.749v6.192h34.749V451.5zm-2.381 0h-29.987l1.751-6.962h26.478l1.758 6.962z" fill="#30327E"/><path d="M643.118 476.97a6.948 6.948 0 0 1-6.95 6.95 6.948 6.948 0 0 1-6.949-6.95 6.948 6.948 0 0 1 6.949-6.95 6.948 6.948 0 0 1 6.95 6.95z" fill="#fff"/><path d="m192.545 240.275-10.665 10.654-5.181-5.166m38.951-10.587h31.519m-31.273 15.637h52.123m-75.474 25.948-10.665 10.654-5.181-5.165m38.951-10.587h31.519m-31.273 15.636h52.123m-.001 36.486H215.65m52.369-15.637h-52.123" stroke="#E1E4E5" stroke-width="5.5" stroke-linecap="round" stroke-linejoin="round"/><path clip-rule="evenodd" d="M184.622 328.998c5.757 0 10.424-4.667 10.424-10.425 0-5.757-4.667-10.424-10.424-10.424-5.758 0-10.425 4.667-10.425 10.424 0 5.758 4.667 10.425 10.425 10.425z" stroke="#E1E4E5" stroke-width="5.5" stroke-linecap="round" stroke-linejoin="round"/><path d="m581.73 207.843-10.664 10.653-5.181-5.165m38.951-10.587h31.519m-31.273 15.637h52.123m-75.475 25.948-10.664 10.654-5.181-5.166m38.951-10.587h31.519m-31.273 15.637h52.123m-.001 36.486h-52.368m52.369-15.637h-52.123" stroke="#E1E4E5" stroke-width="5.5" stroke-linecap="round" stroke-linejoin="round"/><path clip-rule="evenodd" d="M573.807 296.565c5.758 0 10.425-4.667 10.425-10.424s-4.667-10.425-10.425-10.425c-5.757 0-10.424 4.668-10.424 10.425 0 5.757 4.667 10.424 10.424 10.424z" stroke="#E1E4E5" stroke-width="5.5" stroke-linecap="round" stroke-linejoin="round"/><path d="m344.281 170.777-10.664 10.654-5.181-5.165m38.95-10.587h31.519m67.181 0h31.519m65.778-.29h55.598m-251.349 15.926h52.123m46.577 0h52.123m44.928-.289h92.663m-311.765 26.237-10.664 10.654-5.181-5.165m38.95-10.587h31.519m67.181 0h31.519m-129.973 15.637h52.123m46.577 0h52.123m-98.701 36.485h-52.368m52.369-15.637h-52.123" stroke="#E1E4E5" stroke-width="5.5" stroke-linecap="round" stroke-linejoin="round"/><path clip-rule="evenodd" d="M336.358 259.5c5.757 0 10.424-4.667 10.424-10.424 0-5.758-4.667-10.425-10.424-10.425s-10.425 4.667-10.425 10.425c0 5.757 4.668 10.424 10.425 10.424z" stroke="#E1E4E5" stroke-width="5.5" stroke-linecap="round" stroke-linejoin="round"/><path fill-rule="evenodd" clip-rule="evenodd" d="M357.466 307.925h-2.059a.9.9 0 0 1-.899-.899v-2.059a.9.9 0 0 1 .899-.899h2.059c.494 0 .899.405.899.899v2.059a.896.896 0 0 1-.899.899zm-7.141 0h-2.06a.902.902 0 0 1-.899-.899v-2.059a.9.9 0 0 1 .899-.899h2.06c.494 0 .899.405.899.899v2.059a.902.902 0 0 1-.899.899zm-7.146 0h-2.06a.903.903 0 0 1-.899-.899v-2.059a.9.9 0 0 1 .899-.899h2.06c.494 0 .899.405.899.899v2.059a.897.897 0 0 1-.899.899zm-7.141 0h-2.06a.902.902 0 0 1-.899-.899v-2.059a.9.9 0 0 1 .899-.899h2.06c.498 0 .903.405.903.899v2.059a.908.908 0 0 1-.903.899zm-7.142 0h-2.059a.904.904 0 0 1-.904-.899v-2.059c0-.498.406-.899.904-.899h2.059c.494 0 .899.405.899.899v2.059a.902.902 0 0 1-.899.899zm21.167-7.787h-2.059a.903.903 0 0 1-.9-.899v-2.064c0-.493.406-.899.9-.899h2.059a.9.9 0 0 1 .899.899v2.06a.898.898 0 0 1-.899.903zm-7.141 0h-2.06a.902.902 0 0 1-.899-.899v-2.064c0-.493.405-.899.899-.899h2.06c.494 0 .899.406.899.899v2.06a.898.898 0 0 1-.899.903zm-7.142 0h-2.059a.904.904 0 0 1-.904-.899v-2.064c0-.493.406-.899.904-.899h2.059c.494 0 .899.406.899.899v2.06a.903.903 0 0 1-.899.903zm7.399 16.153h-2.06a.903.903 0 0 1-.899-.899v-2.059a.9.9 0 0 1 .899-.899h2.06c.494 0 .899.405.899.899v2.059a.897.897 0 0 1-.899.899zm-7.141 0h-2.06a.902.902 0 0 1-.899-.899v-2.059a.9.9 0 0 1 .899-.899h2.06c.498 0 .903.405.903.899v2.059a.908.908 0 0 1-.903.899z" fill="#E1E4E5"/><rect x="707.378" y="427.653" width="56.392" height="6.57" rx="3.285" transform="rotate(-45 707.378 427.653)" fill="#fff" stroke="#E1E4E5" stroke-width="4"/><rect x="728.999" y="427.807" width="20.938" height="6.57" rx="3.285" transform="rotate(-45 728.999 427.807)" fill="#fff" stroke="#E1E4E5" stroke-width="4"/><path d="M739.424 368.078c6.486 3.041 5.379 12.626-1.604 14.107h-.001l-28.53 6.066-1.095.233-.374 1.056-10.584 29.907c-2.406 6.777-11.98 6.589-14.122-.263l-23.236-74.586c-1.941-6.234 4.406-11.764 10.246-9.028h.001l69.299 32.508z" fill="#fff" stroke="#E1E4E5" stroke-width="4"/></svg>