<svg width="900" height="600" viewBox="0 0 900 600" fill="none" xmlns="http://www.w3.org/2000/svg"><path fill="transparent" d="M0 0h900v600H0z"/><path d="M349.97 135.83c95.358-5.398 195.335 22.719 180.64 63.479-14.697 40.76 78.569-14.477 115.787.219 26.498 10.462 15.906 42.311 28.724 55.145 29.392 29.424 59.454-7.629 96.861 14.604 37.408 22.232-39.18 229.731-78.259 230.89l-445.734-2.643-31.987-2.804s-88.481-47.2-25.187-90.742c42.797-29.441 12.004-50.82 7.349-64.299-5.344-15.475-17.813-42.503 36.518-62.337 54.332-19.834 40.304-62.992 38.967-71.927-1.335-8.939-19.034-64.187 76.321-69.585z" fill="url(#a)"/><path d="M492 516c185.568 0 336-5.373 336-12s-150.432-12-336-12-336 5.373-336 12 150.432 12 336 12z" fill="url(#b)"/><path d="M191.206 423.919s18.566-34.322 67.182-67.804c34.322-23.642 50.985-84.653 50.985-84.653s-68.444 7.889-95.328 51.807c-26.884 43.917-22.839 100.65-22.839 100.65z" fill="#666AF6"/><path d="M191.037 424.813c.464-.033.855-.372.927-.819 7.081-37.135 26.31-65.071 41.214-81.985 16.154-18.299 30.774-27.929 30.923-28.017.47-.319.607-.951.288-1.421a1.023 1.023 0 0 0-1.422-.288c-.149.088-15.017 9.865-31.338 28.384-15.074 17.081-34.539 45.345-41.691 82.927a1 1 0 0 0 .811 1.187c.131.017.21.037.288.032z" fill="#31446C"/><path d="M200.161 422.528s5.11-12.376 32.193-11.298c27.081 1.053 43.066 14.934 88.926-15.342 0 0-37.955-27.309-76.322-18.555-38.395 8.73-40.325 23.862-44.797 45.195z" fill="#666AF6"/><path d="M200.104 423.544c.335-.024.658-.228.842-.553.116-.19 10.771-19.939 29.854-24.828 33.348-8.552 57.09.599 57.331.712a1.041 1.041 0 0 0 1.333-.588 1.053 1.053 0 0 0-.562-1.335c-.24-.087-24.597-9.505-58.607-.776-19.975 5.108-30.696 25.017-31.155 25.854-.275.513-.076 1.121.436 1.396.137.094.347.131.528.118z" fill="#31446C"/><path d="M188.211 420.475s1.412-13.305-22.895-25.295c-24.307-11.991-44.969-7.43-70.814-55.916 0 0 46.381-5.875 75.942 20.139 29.558 25.962 24.008 40.185 17.767 61.072z" fill="#666AF6"/><path d="M188.417 421.55c.516-.037.952-.483.941-1.001.009-.96.058-23.56-15.029-37.582-25.726-23.901-51.622-27.243-51.858-27.278a1.024 1.024 0 0 0-1.13.885 1.024 1.024 0 0 0 .885 1.13c.262.033 25.504 3.318 50.731 26.761 14.447 13.42 14.385 35.839 14.376 36.073a1.021 1.021 0 0 0 1.009 1.044c-.002-.026.024-.028.075-.032z" fill="#31446C"/><path d="M199.796 512.04c35.296 0 57.758-5.615 54.156-30.483-2.287-15.788-14.593-31.235-23.28-40.434a138.998 138.998 0 0 0-3.414-3.482c-3.226-3.175-5.393-5.018-5.393-5.018l-.103-.58-.614-3.482-.717-4.011-1.621-9.183-.564-3.208-18.45-.803-19.253.803-.443 3.208-.683 5.052-1.127 8.159-.477 3.482-.069.58s-2.167 1.826-5.393 5.018a175.8 175.8 0 0 0-3.414 3.482c-8.687 9.182-20.993 24.646-23.28 40.434-3.619 24.851 18.843 30.466 54.139 30.466z" fill="#31446C"/><path d="M173.369 417.98h53.369c2.858 0 5.198-2.34 5.198-5.198v-3.251c0-2.858-2.34-5.198-5.198-5.198h-53.369c-2.858 0-5.198 2.34-5.198 5.198v3.251c0 2.858 2.34 5.198 5.198 5.198z" fill="#31446C"/><path d="M165 290.167c0 5.526-4.703 10-10.512 10s-10.488-4.496-10.488-10c0-5.527 4.703-10 10.512-10s10.488 4.473 10.488 10z" stroke="#E1E4E5" stroke-width="5.225" stroke-miterlimit="10"/><path d="M229.326 229.124c-15.172 13.257-41.27 8.229-41.27 8.229s-1.483-26.521 13.701-39.769c15.172-13.257 41.258-8.239 41.258-8.239s1.483 26.521-13.689 39.779z" fill="url(#c)"/><circle cx="292.445" cy="150.679" r="5.453" transform="rotate(105 292.445 150.679)" fill="#E1E4E5"/><circle cx="312.251" cy="219.699" r="5.453" transform="rotate(105 312.251 219.699)" fill="#E1E4E5"/><circle cx="420.652" cy="168.625" r="5.453" transform="rotate(105 420.652 168.625)" fill="#E1E4E5"/><circle cx="615.36" cy="288.286" r="3.583" transform="rotate(105 615.36 288.286)" fill="#E1E4E5"/><circle cx="618.679" cy="375.679" r="5.453" transform="rotate(105 618.679 375.679)" fill="#E1E4E5"/><circle cx="661.679" cy="343.679" r="5.453" transform="rotate(105 661.679 343.679)" fill="#E1E4E5"/><path d="M580.001 226.632v19.439l-17.548 20.914h73.711c22.28 0 40.353-18.072 40.353-40.353 0-22.28-18.073-40.352-40.353-40.352h-15.81c-22.294 0-40.353 18.072-40.353 40.352z" fill="#E1E4E5"/><path d="M611.097 226.564a7.177 7.177 0 0 1-7.174 7.174 7.178 7.178 0 0 1-7.174-7.174 7.178 7.178 0 0 1 7.174-7.174 7.177 7.177 0 0 1 7.174 7.174zm24.377-.001a7.176 7.176 0 0 1-7.173 7.174 7.177 7.177 0 0 1-7.174-7.174 7.177 7.177 0 0 1 7.174-7.174 7.177 7.177 0 0 1 7.173 7.174zm24.378 0a7.177 7.177 0 0 1-7.174 7.174 7.177 7.177 0 0 1-7.174-7.174 7.178 7.178 0 0 1 7.174-7.174 7.177 7.177 0 0 1 7.174 7.174z" fill="#fff"/><path d="m640.66 440.867-14.071 5.501.892-15.081 14.067-5.497-.888 15.077z" stroke="#E1E4E5" stroke-width="4.267" stroke-linecap="round" stroke-linejoin="round"/><path fill-rule="evenodd" clip-rule="evenodd" d="M331 166.477V128.18c0-3.967 3.207-7.18 7.165-7.18h42.993c3.959 0 7.166 3.213 7.166 7.18v38.297a7.18 7.18 0 0 1-3.687 6.276l-21.496 11.966a7.149 7.149 0 0 1-6.961 0l-21.497-11.966a7.19 7.19 0 0 1-3.683-6.276z" fill="#E1E4E5"/><path d="M347.747 152.668h23.831m-23.831-11.165h23.831m-23.831 22.007h23.831" stroke="#fff" stroke-width="3.682" stroke-linecap="round" stroke-linejoin="round"/><rect x="654.841" y="299.296" width="29.146" height="3.396" rx="1.698" transform="rotate(-45 654.841 299.296)" fill="#E1E4E5"/><rect x="666.016" y="299.375" width="10.822" height="3.396" rx="1.698" transform="rotate(-45 666.016 299.375)" fill="#E1E4E5"/><path d="M760.852 225.076s-15.36-4.122-20.655 31.09c-5.295 35.211-5.333 54.498-5.333 54.498s-1.944 7.657-7.654 4.976-15.538-12.388-22.203-7.831c-6.909 4.73-6.576 14.088-.945 26.13 5.631 12.042 16.995 38.854 18.015 41.291 1.006 2.379.798 6.462-3.384 5.255-4.182-1.207-31.008-16.465-37.481-3.309-6.487 13.161 14.716 44.12 16.965 47.544 2.25 3.425 2.059 5.283.585 6.811-1.474 1.527-10.013-4.453-17.815-8.487-7.803-4.034-17.566-7.328-20.669.578-3.103 7.905 3.803 34.136 42.144 67.684l18.783 14.382 22.092-8.752c46.131-21.609 60.039-44.904 59.244-53.357-.795-8.453-11.084-7.993-19.704-6.281-8.621 1.713-18.48 5.09-19.473 3.212-.994-1.877-.673-3.709 2.439-6.38s32.057-26.535 29.472-40.985c-2.582-14.436-32.586-7.208-36.938-7.221-4.348.002-3.406-3.971-1.786-5.983 1.655-2.051 20.016-24.671 28.755-34.684 8.744-9.998 11.654-18.908 6.325-25.366-5.131-6.235-17.274.387-23.5 1.382-6.226.994-5.971-6.913-5.971-6.913s5.32-18.544 9.979-53.845c4.658-35.301-11.63-35.515-11.63-35.515" fill="#E1E4E5"/><path d="M720.813 500.741c3.514-25.914 8.678-61.673 14.529-101.152 5.84-39.461 11.087-75.195 14.759-101.091 1.82-12.921 3.287-23.389 4.309-30.66.507-3.596.904-6.397 1.18-8.339.135-.925.249-1.644.322-2.169.086-.482.139-.741.139-.741s-.011.247-.059.75c-.06.522-.141 1.248-.244 2.179-.243 1.948-.594 4.752-1.036 8.362-.904 7.255-2.288 17.746-4.054 30.699-3.514 25.914-8.681 61.658-14.518 101.133-5.837 39.476-11.097 75.214-14.755 101.106" fill="#fff"/><path d="M718.214 321.955c.053-.029.423.438 1.091 1.331.665.878 1.58 2.18 2.687 3.797 2.218 3.249 5.168 7.802 8.328 12.911 3.077 5.025 5.873 9.574 8.024 13.086.966 1.548 1.777 2.861 2.452 3.951.586.93.882 1.464.829 1.493-.054.03-.438-.434-1.102-1.312-.65-.883-1.565-2.184-2.662-3.819-2.193-3.271-5.08-7.872-8.222-12.971l-8.112-13.016c-.966-1.547-1.791-2.857-2.466-3.947-.59-.945-.886-1.478-.847-1.504zm25.597 36.274c-.125-.181 9.004-6.685 20.399-14.5 11.392-7.83 20.741-14.025 20.866-13.844.125.181-9.008 6.67-20.399 14.5-11.406 7.833-20.741 14.025-20.866 13.844zm-11.7 60.217c-.016-.057.569-.275 1.618-.648 1.223-.404 2.729-.9 4.498-1.496 3.796-1.262 9.047-3.037 14.762-5.196 5.718-2.145 10.831-4.265 14.532-5.823 1.721-.721 3.178-1.341 4.374-1.846 1.034-.43 1.622-.633 1.648-.594.03.053-.518.353-1.51.879a112.07 112.07 0 0 1-4.281 2.081 208.66 208.66 0 0 1-14.471 6.052 217.054 217.054 0 0 1-14.88 4.982c-1.931.563-3.502.984-4.578 1.257-1.089.277-1.697.409-1.712.352zm-30.366-27.724c.035-.04.493.297 1.311.95.804.658 1.95 1.621 3.359 2.821a791.84 791.84 0 0 1 10.898 9.528 822.883 822.883 0 0 1 10.747 9.707 153.986 153.986 0 0 1 3.197 3.017c.744.719 1.135 1.15 1.099 1.19-.035.04-.492-.296-1.311-.95-.804-.657-1.95-1.621-3.358-2.821a785.066 785.066 0 0 1-10.898-9.528c-4.221-3.753-8.021-7.191-10.733-9.71a156.907 156.907 0 0 1-3.197-3.017c-.758-.716-1.163-1.143-1.114-1.187zm-17.084 51.844c.036-.04.628.399 1.664 1.239 1.143.949 2.598 2.152 4.319 3.605 3.625 3.07 8.598 7.342 14.056 12.111 5.458 4.77 10.374 9.118 13.904 12.291 1.661 1.514 3.06 2.793 4.157 3.801.962.906 1.488 1.438 1.453 1.479-.035.04-.628-.399-1.664-1.239-1.143-.949-2.598-2.152-4.319-3.604a1265.228 1265.228 0 0 1-14.056-12.112 1412.932 1412.932 0 0 1-13.904-12.291c-1.661-1.514-3.06-2.793-4.157-3.801-.977-.902-1.488-1.438-1.453-1.479zm38.832 33.432c-.015-.057.715-.36 2.034-.866 1.476-.549 3.369-1.255 5.64-2.093 4.76-1.781 11.341-4.249 18.517-7.182a604.898 604.898 0 0 0 18.273-7.805 921.822 921.822 0 0 0 5.501-2.439c1.304-.564 2.034-.867 2.064-.813.029.053-.664.438-1.926 1.097-1.263.66-3.113 1.585-5.408 2.675a339.498 339.498 0 0 1-18.198 8.03 341.476 341.476 0 0 1-18.635 6.968 194.553 194.553 0 0 1-5.734 1.858c-1.345.407-2.102.609-2.128.57z" fill="#fff"/><path d="M713.933 256h.131c.774 10.517 8.936 10.679 8.936 10.679s-9 .169-9 12.321c0-12.152-9-12.321-9-12.321s8.158-.162 8.933-10.679z" fill="#E1E4E5"/><path d="m458.699 255.487-15.127 55.298 5.397-6.211c-1.996 1.063-4.31 1.878-6.873 2.456-2.562.579-5.349.909-8.265 1.063-2.917.153-5.952.13-9.069 0-3.106-.13-6.282-.366-9.506-.638h-.012a8.653 8.653 0 0 0-9.352 7.876c-.389 4.535 2.834 8.55 7.251 9.27 3.33.531 6.707 1.027 10.178 1.429 3.472.401 7.026.696 10.71.779 3.685.083 7.499-.059 11.443-.626 3.932-.567 8.017-1.594 12.009-3.318a9.404 9.404 0 0 0 5.195-5.644l.189-.579 18.149-54.389c2.043-6.116-1.263-12.717-7.38-14.76-6.116-2.043-12.717 1.264-14.76 7.38-.059.201-.13.425-.177.614z" fill="#F8AE9D"/><path d="M537.123 322.811s.584 8.19-5.281 10.354l-61.021 2.35s-4.1-3.979-3.293-13.518c0-.023 25.932-26.479 69.595.814z" fill="#666AF6"/><path d="M492.317 331.45c.201 1.558.886 2.751 1.535 2.656.638-.082 1.004-1.417.803-2.963-.201-1.559-.886-2.752-1.535-2.657-.65.082-1.004 1.417-.803 2.964z" fill="#B55E63"/><path d="M466.374 312.021v.083c.024.228.036.468.048.72.06.96.108 2.112.144 3.42.036 1.056.048 2.208.06 3.444 0 .924.012 1.884.012 2.88 17.352-7.5 52.835-2.172 67.119.432-.143-.72-.275-1.428-.407-2.124-.096-.516-.18-1.02-.276-1.524-.946-5.484-1.45-10.415-1.617-14.819l-.036-1.176c-.144-6.54.563-15.839 2.001-25.415.096-.66.204-1.32.299-1.968l.216-1.296a172.045 172.045 0 0 1 1.834-9.491c.239-1.056.443-2.124.611-3.18.191-1.176.335-2.352.443-3.516.264-2.952.24-5.832-.144-8.508-.683-4.764-2.54-8.867-5.979-11.507-1.942-1.488-4.398-2.52-7.442-2.928-.995-.132-1.977-.264-2.924-.372-2.984-.36-5.728-.612-7.957-.792-.731-.06-1.414-.108-2.025-.156-1.558-.108-2.709-.18-3.272-.204a11.883 11.883 0 0 1-.407-.024l-26.64 7.38-2.54.696c-1.079.336-2.097.66-3.044.972-2.349.78-4.35 1.524-6.076 2.255-2.133.912-3.834 1.8-5.176 2.736-5.872 4.068-5.034 8.76-5.01 18v.636c0 .696-.012 1.391-.035 2.087-.024.876-.072 1.74-.144 2.604-.12 1.74.913 3.438.697 5.142C461.5 288.5 462.199 292.5 463.199 300c.866 6.5.695 10.197 2.516 11.541.408.312.659.48.659.48z" fill="#666AF6"/><path d="M506.097 235.307s-2.35 8.891-11.229 11.359c-11.289 3.129-12.99-.661-12.99-.661a22.3 22.3 0 0 0 .307-4.877 27.689 27.689 0 0 0-.153-1.948c-.201-1.819-.579-3.802-1.11-6.07-.118-.531-.26-1.086-.401-1.653l-.012-.071c7.722-2.904 13.78-7.262 17.488-13.709l1.098-.862.744-.59.212.448.036 1.5c.153 7.049 1.346 11.218 6.01 17.134z" fill="#F8AE9D"/><path d="M452.877 455.979c.225 0 .449-.035.673-.118l79.234-28.564a2.003 2.003 0 0 0-1.358-3.767l-79.234 28.564a2.002 2.002 0 0 0 .685 3.885z" fill="#666AF6"/><path d="M535.393 455.98a2.002 2.002 0 0 0 .674-3.885l-80.178-29.037a2.005 2.005 0 0 0-1.37 3.767l80.178 29.036c.248.083.472.119.696.119z" fill="#666AF6"/><path d="M445.828 507.026a3.43 3.43 0 0 0 3.389-2.964l14.311-106.852h59.88l14.087 106.852a3.411 3.411 0 0 0 3.838 2.941 3.412 3.412 0 0 0 2.94-3.838l-14.477-109.828a3.423 3.423 0 0 0-3.389-2.976h-65.878a3.414 3.414 0 0 0-3.389 2.964l-14.713 109.828a3.43 3.43 0 0 0 2.94 3.85c.154.023.307.023.461.023z" fill="#666AF6"/><path d="M479.611 393.785h42.781c13.556 0 28.069-7.415 30.147-20.818a253.61 253.61 0 0 0 2.692-51.177c-.874-18.007-9.47-34.751-23.628-45.91 0 0-8.549 37.243 2.196 88.656-4.085 19.543-54.188 29.249-54.188 29.249z" fill="#666AF6"/><path d="M380.623 461.245h19.105s4.429-21.207 5.905-33.11c1.487-11.891 2.255-40.089 2.255-40.089s15.233 4.948 47.115 3.082c70.637-4.121 43.856-56.018 43.856-56.018-2.386 3.294-17.004 1.015-26.994 2.586-30.666 2.94-57.27 14.985-73.223 21.869-3.849 1.653-7.262 3.412-10.249 5.254-3.85 2.374-6.259 9.565-7.711 19.035-4.369 28.446-.059 77.391-.059 77.391z" fill="#31446C"/><path d="M381.154 485.725h13.485l2.598-15.823 1.417-8.656h-16.756l-.26 8.656-.484 15.823z" fill="#F8AE9D"/><path d="M381.154 485.724h13.485l1.937-11.784.661-4.039h-15.599l-.13 4.192-.354 11.631z" fill="url(#d)"/><path d="M347.867 507.027h51.023c.378-.685.591-1.665.673-2.834.319-4.322-1.051-11.206-1.736-15.552-.082-.508-.153-.98-.212-1.405-.095-.732-.154-1.334-.154-1.771 0-3.543-3.141-2.941-3.141-2.941-5.16 5.066-11.005-2.527-14.417-.035 0 0-.142.106-.449.342-.284.225-.721.579-1.323 1.087-.874.732-2.09 1.783-3.743 3.271-4.05 3.648-10.934 6.046-16.803 8.502-.744.307-1.441.625-2.09.932-.484.237-.945.473-1.382.709-4.794 2.586-6.317 5.066-6.66 6.861-.342 1.735.414 2.834.414 2.834z" fill="#31446C"/><path d="M347.867 507.027h51.023c.378-.685.591-1.665.673-2.834h-52.11c-.342 1.736.414 2.834.414 2.834z" fill="#31446C"/><path d="m509.245 249.374-16.961 62.54 6.047-7.024c-2.237 1.204-4.831 2.118-7.7 2.777-2.869.648-6.002 1.03-9.261 1.192-3.27.174-6.679.139-10.167 0-3.489-.15-7.047-.405-10.662-.717h-.022c-5.337-.463-10.03 3.529-10.489 8.909-.437 5.126 3.178 9.673 8.136 10.483 3.73.602 7.528 1.169 11.418 1.62 3.891.452 7.884.799 12.016.891 4.131.093 8.411-.069 12.83-.717 4.418-.648 8.997-1.805 13.472-3.749 2.869-1.25 4.901-3.622 5.83-6.376l.218-.648 20.335-61.521c2.284-6.92-1.411-14.383-8.274-16.697-6.851-2.303-14.264 1.423-16.559 8.342-.069.22-.15.486-.207.695z" fill="#F8AE9D"/><path d="M413.898 461.305h19.106s4.428-21.208 5.904-33.111c1.488-11.891 2.256-40.089 2.256-40.089s15.232 4.948 47.114 3.082c70.637-4.121 43.856-56.018 43.856-56.018-2.385 3.294-20.286 7.841-30.276 9.411-30.666 2.94-53.987 8.148-69.94 15.044-3.85 1.653-7.262 3.412-10.25 5.254-3.849 2.374-6.258 9.565-7.711 19.035-4.38 28.446-.059 77.392-.059 77.392z" fill="#31446C"/><path d="M414.418 485.794h13.497l2.598-15.823 1.417-8.667h-16.756l-.272 8.667-.484 15.823z" fill="#F8AE9D"/><path d="M414.418 485.795h13.497l1.924-11.785.674-4.038h-15.611l-.13 4.192-.354 11.631z" fill="url(#e)"/><path d="M381.131 507.096h51.023c.378-.685.59-1.665.673-2.834.319-4.321-1.051-11.206-1.736-15.551-.082-.508-.153-.98-.212-1.405-.095-.732-.154-1.335-.154-1.772 0-3.542-3.141-2.94-3.141-2.94-5.16 5.066-11.005-2.527-14.418-.035 0 0-.141.106-.448.342-.284.225-.721.579-1.323 1.087-.874.732-2.09 1.783-3.743 3.27-4.05 3.649-10.935 6.046-16.803 8.502-.744.307-1.441.626-2.09.933-.484.236-.945.473-1.382.709-4.794 2.586-6.317 5.065-6.66 6.86-.33 1.724.414 2.834.414 2.834z" fill="#31446C"/><path d="M381.13 507.096h51.024c.378-.685.59-1.665.673-2.834h-52.11c-.33 1.724.413 2.834.413 2.834z" fill="#31446C"/><path d="M309.472 334.5v5.299c0 3.055 1.875 5.52 4.205 5.52h292.241c2.319 0 4.206-2.465 4.206-5.52V334.5c0-3.041-1.875-5.521-4.206-5.521H313.677c-2.318.015-4.205 2.48-4.205 5.521z" fill="#E1E4E5"/><path d="M324.415 352.854h263.053c1.18 0 2.137-.779 2.137-1.747v-9.199H322.29v9.199c0 .968.956 1.747 2.125 1.747zm277.27 155.577-37.267-154.487h13.095l37.255 154.487h-13.083zm-255.271 0 37.267-154.487h-13.084l-37.266 154.487h13.083z" fill="#E1E4E5"/><path d="m344.832 248.06 13.698 57.931.366 1.523.921 3.897a3.737 3.737 0 0 0 3.637 2.881h92.281c2.409 0 4.204-2.255 3.649-4.605l-14.985-63.351a3.737 3.737 0 0 0-3.637-2.881h-92.281c-2.421.011-4.204 2.267-3.649 4.605z" fill="#666AF6"/><path d="M389.668 281.359c.437 3.992 4.026 7.215 8.018 7.215 3.991 0 6.86-3.235 6.423-7.215-.437-3.991-4.026-7.214-8.017-7.214-3.992 0-6.861 3.223-6.424 7.214z" fill="#fff"/><path d="m437.091 243.466 15.953 70.837h2.692c2.409 0 4.192-2.255 3.637-4.605l-14.985-63.351a3.737 3.737 0 0 0-3.637-2.881h-3.66zm-26.665 70.263 2.531 14.161h-8.362l-2.531-14.161h8.362z" fill="#31446C"/><path d="m424.582 326.612-1.89-2.657a3.616 3.616 0 0 0-2.94-1.511H394.4a3.577 3.577 0 0 0-3.188 1.936l-1.276 2.445c-.602 1.145.237 2.503 1.524 2.503h31.717c1.393 0 2.208-1.582 1.405-2.716z" fill="#31446C"/><path d="M476.505 233.507s25.554-2.489 23.758-18.38c-1.795-15.891.291-26.915-16.099-25.996-16.39.918-18.875 7.338-19.563 12.787-.689 5.45 5.213 31.826 11.904 31.589z" fill="#F8AE9D"/><path d="M455 187.945s2.635 14.748 7.656 15.286c5.02.537 3.221-5.664 3.221-5.664l-1.354-6.995-9.523-2.627z" fill="#002C54"/><path d="M498.431 183.213c-.672-5.586-6.542-7.156-6.542-7.156-5.89-2.102-17.511.151-29.357 3.985-2.79.899-6.505-.498-8.352 1.063-2.234 1.887.859 9.252.859 9.252 6.003 13.694 22.739 7.476 27.744 5.241 1.575 3.521 1.894 8.591 5.192 10.924 1.888 1.324 4.913 1.082 7.958.274.44.681 1.932 1.19 2.312 2.151 1.286 3.216 1.631 8.399 1.978 12.383l1.393-.854c.084-1.106 11.781-38.199-3.185-37.263z" fill="#002C54"/><rect x="215" y="186" width="71.033" height="53.708" rx="20" fill="#666AF6"/><rect x="250.228" y="226.425" width="15.015" height="15.015" rx="7" transform="rotate(45 250.228 226.425)" fill="#666AF6"/><path fill-rule="evenodd" clip-rule="evenodd" d="M257.75 197.55c6.214 0 10.38 5.808 10.38 11.217 0 10.979-17.298 19.968-17.614 19.968-.315 0-17.613-8.989-17.613-19.968 0-5.409 4.166-11.217 10.38-11.217 3.552 0 5.885 1.764 7.233 3.335 1.349-1.571 3.682-3.335 7.234-3.335z" fill="#fff"/><defs><linearGradient id="a" x1="488.092" y1="704.807" x2="481.401" y2="-261.976" gradientUnits="userSpaceOnUse"><stop stop-color="#fff"/><stop offset="1" stop-color="#EEE"/></linearGradient><linearGradient id="b" x1="506.328" y1="529.456" x2="506.302" y2="465.883" gradientUnits="userSpaceOnUse"><stop stop-color="#fff"/><stop offset="1" stop-color="#EEE"/></linearGradient><linearGradient id="c" x1="169.42" y1="273.791" x2="283.369" y2="121.987" gradientUnits="userSpaceOnUse"><stop stop-color="#fff"/><stop offset="1" stop-color="#EEE"/></linearGradient><linearGradient id="d" x1="388.853" y1="494.596" x2="389.333" y2="452.688" gradientUnits="userSpaceOnUse"><stop stop-color="#fff"/><stop offset="1" stop-color="#EEE"/></linearGradient><linearGradient id="e" x1="422.122" y1="494.666" x2="422.602" y2="452.759" gradientUnits="userSpaceOnUse"><stop stop-color="#fff"/><stop offset="1" stop-color="#EEE"/></linearGradient></defs></svg>